<?xml version="1.0" encoding="iso-8859-1"?>
<!-- Generator: Adobe Illustrator 16.0.0, SVG Export Plug-In . SVG Version: 6.00 Build 0)  -->
<!DOCTYPE svg PUBLIC "-//W3C//DTD SVG 1.1//EN" "http://www.w3.org/Graphics/SVG/1.1/DTD/svg11.dtd">
<svg version="1.1" id="Layer_1" xmlns="http://www.w3.org/2000/svg" xmlns:xlink="http://www.w3.org/1999/xlink" x="0px" y="0px"
	 width="32px" height="22.317px" viewBox="0 0 32 22.317" style="enable-background:new 0 0 32 22.317;" xml:space="preserve">
<g>
	<polygon points="28.393,1.22 14.065,0.922 20.394,1.719 24.906,4.593 	"/>
	<polygon points="19.912,1.973 5.534,0 1.94,3.031 16.409,6.891 	"/>
	<path d="M16.753,18.92l14.075-7.326V3.341L28.771,1.22l-3.816,3.764l-4.622-2.915l-3.58,5.182V18.92z M26.317,8.439l3.523-1.358
		v0.494l-3.523,1.41V8.439z M26.317,9.381l3.523-1.443v0.494l-3.523,1.496V9.381z M26.317,10.265l3.523-1.529V9.23l-3.523,1.58
		V10.265z M26.317,11.108l3.523-1.609v0.495l-3.523,1.66V11.108z M18.455,11.362l5.071-1.943v0.588l-5.071,2.018V11.362z
		 M18.455,12.504l5.071-2.067v0.588l-5.071,2.141V12.504z M18.455,13.574l5.071-2.188v0.587l-5.071,2.264V13.574z M18.455,14.597
		l5.071-2.304v0.587l-5.071,2.378V14.597z"/>
	<path d="M16.222,7.276L1.856,3.399v8.149l14.365,7.365V7.276z M3.927,7.106L2.442,6.569V4.476l1.484,0.443V7.106z M6.279,7.995
		L4.59,7.382v-2.23l1.689,0.506V7.995z M8.886,8.894L6.955,8.194V5.813L8.886,6.39V8.894z M11.905,9.996L9.677,9.189V6.636
		l2.229,0.665V9.996z M15.403,11.201l-2.601-0.939V7.511l2.601,0.772V11.201z"/>
	<polygon points="32,11.431 16.428,19.756 0,10.966 0,12.617 16.433,22.298 16.433,22.312 16.445,22.305 16.465,22.317 
		16.465,22.293 32,13.149 	"/>
</g>
<g>
</g>
<g>
</g>
<g>
</g>
<g>
</g>
<g>
</g>
<g>
</g>
<g>
</g>
<g>
</g>
<g>
</g>
<g>
</g>
<g>
</g>
<g>
</g>
<g>
</g>
<g>
</g>
<g>
</g>
</svg>
