<?xml version="1.0" encoding="iso-8859-1"?>
<!-- Generator: Adobe Illustrator 16.0.0, SVG Export Plug-In . SVG Version: 6.00 Build 0)  -->
<!DOCTYPE svg PUBLIC "-//W3C//DTD SVG 1.1//EN" "http://www.w3.org/Graphics/SVG/1.1/DTD/svg11.dtd">
<svg version="1.1" id="Layer_1" xmlns="http://www.w3.org/2000/svg" xmlns:xlink="http://www.w3.org/1999/xlink" x="0px" y="0px"
	 width="32.031px" height="25.126px" viewBox="0 0 32.031 25.126" style="enable-background:new 0 0 32.031 25.126;"
	 xml:space="preserve">
<g>
	<path d="M14.705,8.023c0.337,0,0.608-0.271,0.608-0.607c0-0.337-0.271-0.608-0.608-0.608c-0.066,0-0.129,0.013-0.191,0.033
		c0.046,0.05,0.074,0.113,0.074,0.185c0,0.156-0.127,0.282-0.283,0.282c-0.066,0-0.129-0.028-0.178-0.069
		c-0.017,0.057-0.029,0.115-0.029,0.178C14.098,7.752,14.371,8.023,14.705,8.023z"/>
	<path d="M17.571,7.971c0.337,0,0.608-0.271,0.608-0.608c0-0.335-0.271-0.608-0.608-0.608c-0.069,0-0.132,0.015-0.191,0.035
		c0.043,0.049,0.072,0.112,0.072,0.185c0,0.154-0.126,0.281-0.28,0.281c-0.07,0-0.131-0.027-0.18-0.068
		c-0.017,0.055-0.029,0.114-0.029,0.176C16.963,7.699,17.234,7.971,17.571,7.971z"/>
	<path d="M16.151,10.029c0.637,0,0.933-0.71,0.933-0.71h-1.879C15.205,9.319,15.514,10.029,16.151,10.029z"/>
	<path d="M12.033,5.197c-0.065,0.627-0.245,3.324,1.173,4.945c0.706,0.806,1.69,1.215,2.931,1.215c0.011,0,0.021-0.001,0.03-0.001
		c0.013,0,0.021,0.001,0.034,0.001c1.237,0,2.224-0.409,2.929-1.215c1.417-1.621,1.238-4.318,1.175-4.945
		c0.334-0.082,0.554-0.055,0.618-0.111c0.128-0.111,0.144-0.965,0.016-1.153c-0.126-0.19-0.65-0.104-0.746-0.276
		c-0.078-0.144-0.542-2.495-2.597-3.328V3.29h-0.736V0.113c-0.217-0.04-0.446-0.064-0.688-0.072l0,0c-0.001,0-0.002,0-0.005,0
		c0,0,0,0-0.001,0l0,0c-0.244,0.008-0.474,0.032-0.687,0.072V3.29H14.74V0.328c-2.053,0.833-2.519,3.185-2.598,3.328
		c-0.095,0.173-0.619,0.086-0.746,0.276c-0.125,0.188-0.109,1.042,0.017,1.153C11.479,5.143,11.697,5.115,12.033,5.197z
		 M12.525,5.379c0.212,0.104,0.447,0.257,0.704,0.479c0.43,0,2.047,0.007,2.817,0.01V5.87c0,0,0.045,0,0.12-0.001
		c0.077,0.001,0.122,0.001,0.122,0.001V5.868c0.77-0.003,2.389-0.01,2.818-0.01c0.256-0.223,0.492-0.375,0.705-0.479
		c0.056,0.752,0.126,3.073-1.065,4.433c-0.603,0.689-1.462,1.04-2.546,1.04c-0.013,0-0.021-0.002-0.029-0.002l0,0
		c-0.001,0-0.002,0-0.005,0c0,0,0,0-0.001,0l0,0c-0.011,0-0.02,0.002-0.029,0.002c-1.086,0-1.944-0.351-2.549-1.04
		C12.397,8.452,12.467,6.131,12.525,5.379z"/>
	<rect x="11.172" y="23.812" width="9.991" height="1.314"/>
	<path d="M24.513,16.606c-0.621-3.396-4.054-5.745-5.255-5.62c-0.378,0.054-0.9,1.573-3.235,1.573c-2.334,0-2.634-1.52-3.01-1.573
		c-1.202-0.125-5.171,2.66-5.792,6.058c-0.096,0.526-0.356,1.18,1.718,3.392H0v0.955h9.881c0.341,0.329,0.724,0.688,1.152,1.074
		l0.139,0.893h10.013l0.079-1.016c0.385-0.336,0.729-0.653,1.034-0.951H32v-0.955h-8.794C25.204,18.143,24.617,17.183,24.513,16.606
		z M21.479,19.573l0.159-2.061H10.264l0.24,1.549c-0.841-0.979-0.842-1.467-0.812-2.018c0.037-0.682,1.496-1.708,1.496-1.708
		l0.008,1.723h9.883c0.001-0.988,0.001-1.723,0.001-1.723s0.971,0.996,1.426,1.742C22.58,17.198,22.73,17.726,21.479,19.573z"/>
	<path d="M25.047,1.204v6.787l6.984-0.778V0L25.047,1.204z M31.472,6.483l-5.925,0.699V1.87l5.925-0.98V6.483z"/>
	<polygon points="30.994,1.566 29.508,1.804 29.508,2.193 30.994,1.961 	"/>
	<polygon points="30.985,2.221 29.499,2.45 29.499,2.841 30.985,2.615 	"/>
	<polygon points="29.512,3.539 30.999,3.323 30.999,2.929 29.512,3.148 	"/>
	<path d="M26.247,4.087l0.012,0.004L26.3,4.232l-0.004,0.016c-0.128,0.443-0.119,0.454-0.097,0.482l0.168,0.222
		c0.006,0.009,0.02,0.014,0.029,0.014c0.009-0.002,0.038-0.006,0.288-0.209l0.009-0.008l0.104,0.048l0.004,0.015
		c0.12,0.417,0.131,0.415,0.16,0.411l0.241-0.032c0.031-0.004,0.044-0.006,0.153-0.456l0.005-0.018l0.104-0.076l0.012,0.005
		c0.171,0.083,0.271,0.124,0.297,0.12c0.012-0.001,0.024-0.01,0.032-0.021l0.174-0.272c0.021-0.035,0.03-0.05-0.106-0.452
		l-0.005-0.016l0.042-0.155l0.011-0.008c0.306-0.218,0.306-0.234,0.306-0.279V3.209c0-0.045,0-0.064-0.306-0.178l-0.011-0.004
		l-0.044-0.144l0.006-0.017c0.13-0.451,0.119-0.463,0.098-0.49l-0.172-0.221c-0.008-0.009-0.021-0.015-0.03-0.013
		c-0.011,0.001-0.04,0.006-0.295,0.217l-0.009,0.008l-0.104-0.045l-0.004-0.016c-0.12-0.415-0.133-0.413-0.162-0.408l-0.241,0.04
		c-0.029,0.005-0.042,0.006-0.151,0.458l-0.004,0.016l-0.104,0.078l-0.011-0.004c-0.168-0.079-0.268-0.117-0.293-0.113
		c-0.01,0.003-0.021,0.012-0.029,0.021l-0.168,0.272c-0.021,0.035-0.031,0.049,0.102,0.444l0.005,0.016l-0.042,0.154l-0.009,0.007
		c-0.296,0.214-0.296,0.231-0.296,0.275V3.91C25.951,3.954,25.951,3.973,26.247,4.087z M27.076,2.998
		c0.217-0.033,0.393,0.193,0.393,0.506c0,0.314-0.176,0.594-0.393,0.624c-0.214,0.031-0.388-0.196-0.388-0.508
		C26.688,3.311,26.862,3.03,27.076,2.998z"/>
	<path d="M28.509,5.395l0.006,0.003l0.023,0.078l-0.003,0.009c-0.07,0.244-0.064,0.251-0.053,0.267l0.094,0.123
		c0.004,0.006,0.012,0.009,0.017,0.008c0.005,0,0.021-0.003,0.162-0.112l0.005-0.004l0.058,0.026L28.82,5.8
		c0.066,0.231,0.072,0.229,0.089,0.229l0.136-0.017c0.016-0.002,0.022-0.003,0.085-0.251l0.003-0.009l0.057-0.041l0.007,0.002
		c0.096,0.048,0.15,0.07,0.166,0.068c0.005-0.001,0.013-0.006,0.017-0.012l0.097-0.149c0.012-0.019,0.017-0.026-0.06-0.249
		l-0.003-0.009l0.024-0.085l0.005-0.004c0.171-0.117,0.171-0.126,0.171-0.151V4.929c0-0.025,0-0.035-0.171-0.101l-0.005-0.003
		l-0.024-0.079l0.003-0.009c0.071-0.247,0.067-0.254,0.055-0.269l-0.096-0.124c-0.004-0.005-0.012-0.008-0.017-0.007
		c-0.007,0-0.023,0.003-0.163,0.115l-0.007,0.004L29.13,4.432l-0.001-0.008c-0.066-0.23-0.074-0.229-0.091-0.229l-0.134,0.02
		c-0.017,0.002-0.024,0.003-0.086,0.251l-0.001,0.009l-0.059,0.042l-0.005-0.003c-0.095-0.045-0.15-0.067-0.166-0.065
		c-0.004,0.001-0.012,0.005-0.016,0.011l-0.094,0.149c-0.014,0.02-0.019,0.027,0.057,0.248l0.003,0.008l-0.024,0.085l-0.005,0.004
		c-0.166,0.116-0.166,0.125-0.166,0.149v0.191C28.343,5.319,28.343,5.328,28.509,5.395z M28.975,4.8
		c0.119-0.015,0.218,0.111,0.218,0.284s-0.099,0.325-0.218,0.34c-0.12,0.016-0.219-0.112-0.219-0.283
		C28.756,4.969,28.854,4.816,28.975,4.8z"/>
	<path d="M30.642,4.926l-0.004-0.001l-0.016-0.051l0.002-0.005c0.046-0.158,0.043-0.162,0.035-0.173l-0.062-0.078
		c-0.003-0.003-0.007-0.005-0.011-0.005c-0.004,0.002-0.014,0.003-0.104,0.076l-0.003,0.002l-0.038-0.017L30.439,4.67
		c-0.042-0.146-0.046-0.146-0.057-0.145l-0.087,0.014c-0.011,0.002-0.015,0.002-0.055,0.161L30.24,4.705l-0.037,0.027l-0.004-0.001
		c-0.061-0.028-0.096-0.042-0.105-0.041c-0.004,0.001-0.008,0.004-0.011,0.008l-0.061,0.096c-0.008,0.013-0.011,0.018,0.037,0.158
		l0.002,0.005l-0.016,0.055l-0.003,0.003c-0.107,0.076-0.107,0.081-0.107,0.097v0.123c0,0.016,0,0.022,0.107,0.063l0.004,0.001
		l0.015,0.05L30.06,5.354c-0.046,0.157-0.043,0.161-0.035,0.171l0.062,0.078c0.002,0.004,0.007,0.005,0.011,0.005
		C30.1,5.607,30.11,5.606,30.2,5.534l0.004-0.002l0.037,0.017l0.001,0.005C30.284,5.7,30.289,5.699,30.3,5.698l0.087-0.012
		c0.011-0.002,0.015-0.003,0.054-0.162l0.002-0.005l0.037-0.027l0.003,0.002c0.063,0.029,0.098,0.042,0.107,0.042
		c0.003-0.001,0.008-0.004,0.011-0.008l0.062-0.096c0.008-0.013,0.011-0.018-0.038-0.159l-0.001-0.006l0.015-0.055l0.004-0.002
		c0.108-0.076,0.108-0.083,0.108-0.099V4.989C30.75,4.974,30.75,4.967,30.642,4.926z M30.341,5.312
		c-0.076,0.011-0.14-0.069-0.14-0.18c0-0.109,0.063-0.208,0.14-0.22c0.078-0.011,0.141,0.07,0.141,0.18
		C30.481,5.202,30.419,5.301,30.341,5.312z"/>
	<path d="M7.052,9.058L0.067,8.342v7.212l6.984,0.291V9.058z M6.551,15.072l-5.924-0.286V9.191l5.924,0.567V15.072z"/>
	<polygon points="6.193,10.535 4.801,10.411 4.801,10.793 6.193,10.911 	"/>
	<polygon points="6.186,11.159 4.792,11.044 4.792,11.425 6.186,11.536 	"/>
	<polygon points="4.805,12.112 6.197,12.216 6.197,11.838 4.805,11.731 	"/>
	<polygon points="4.11,11.183 1.044,10.934 1.044,11.674 4.11,11.903 	"/>
	<polygon points="3.4,12.225 1.044,12.056 1.044,12.795 3.4,12.95 	"/>
	<polygon points="5.601,13.461 1.044,13.178 1.044,13.918 5.601,14.173 	"/>
	<path d="M31.952,8.279l-6.976,0.716v6.783l6.976-0.291V8.279z M31.393,14.72l-5.916,0.286V9.695l5.916-0.567V14.72z"/>
	<polygon points="31.001,9.815 29.517,9.949 29.517,10.339 31.001,10.21 	"/>
	<polygon points="30.99,10.47 29.508,10.595 29.508,10.984 30.99,10.863 	"/>
	<polygon points="29.521,11.683 31.005,11.572 31.005,11.178 29.521,11.294 	"/>
	<path d="M27.775,13.886c0.111-0.17,0.288-1.03,0.288-1.03s-0.578,0.298-0.688,0.466c-0.111,0.169-0.111,0.432,0,0.587
		C27.485,14.064,27.664,14.055,27.775,13.886z"/>
	<path d="M25.843,14.611l3.536-0.183v-0.367l0.004-0.029c0.001-0.039,0.004-0.404,0.004-0.444c0-1.297-0.636-1.96-0.636-1.96
		c-0.316-0.369-0.724-0.575-1.166-0.539c-0.971,0.08-1.746,1.291-1.746,2.709c0,0.038,0.004,0.392,0.004,0.43V14.611z
		 M26.259,13.815l0.355-0.021v-0.171l-0.33,0.02c0-0.002-0.025,0.002-0.025,0.002c0.014-0.442,0.128-0.892,0.342-1.255l0.009-0.016
		l0.017,0.02l0.238,0.337l0.075-0.116l-0.254-0.357c0.23-0.327,0.523-0.527,0.836-0.572l0.018-0.002c0,0,0.009-0.001,0.008,0.007
		v0.526l0.098-0.007v-0.534c0.048-0.001,0.095,0.004,0.143,0.012c0.272,0.032,0.526,0.186,0.732,0.445l-0.261,0.398l0.072,0.101
		l0.25-0.382l0.015-0.018l0.012,0.021c0.218,0.331,0.343,0.761,0.356,1.229l-0.371,0.022v0.174l0.372-0.021c0,0,0.002,0.375,0,0.396
		l-2.706,0.15C26.258,14.181,26.259,13.839,26.259,13.815z"/>
	<path d="M30.342,13.103c-0.236,0.015-0.426,0.3-0.426,0.638c0,0.337,0.189,0.601,0.426,0.588c0.237-0.012,0.429-0.298,0.429-0.638
		C30.771,13.352,30.579,13.088,30.342,13.103z"/>
	<path d="M26.309,10.645c0.152-0.014,0.279-0.211,0.279-0.44c0-0.229-0.127-0.403-0.279-0.389c-0.154,0.015-0.278,0.211-0.278,0.439
		C26.03,10.482,26.154,10.657,26.309,10.645z"/>
	<path d="M27.221,10.582c0.156-0.014,0.284-0.212,0.284-0.443s-0.128-0.406-0.284-0.392c-0.157,0.015-0.282,0.212-0.282,0.443
		C26.938,10.42,27.063,10.595,27.221,10.582z"/>
	<path d="M28.146,10.534c0.159-0.014,0.288-0.214,0.288-0.447s-0.129-0.409-0.288-0.396c-0.158,0.016-0.287,0.216-0.287,0.447
		S27.987,10.548,28.146,10.534z"/>
	<path d="M7.052,1.299L0.067,0.098V7.31l6.984,0.776V1.299z M6.551,7.278L0.629,6.579V0.986l5.922,0.979V7.278z"/>
	<path d="M3.351,4.035c0,0.176-0.04,0.33-0.107,0.451l0.628,0.791c0.17-0.303,0.271-0.691,0.271-1.13
		c0-0.856-0.387-1.644-0.924-1.978L2.972,3.235C3.191,3.366,3.351,3.687,3.351,4.035z"/>
	<path d="M2.681,5.936c0.436,0.055,0.82-0.197,1.062-0.627L3.113,4.518C3.015,4.694,2.859,4.797,2.681,4.773
		c-0.3-0.041-0.543-0.428-0.543-0.861s0.243-0.751,0.543-0.706c0.057,0.009,0.111,0.028,0.162,0.06l0.245-1.066
		C2.96,2.12,2.824,2.066,2.681,2.044C1.935,1.925,1.318,2.711,1.318,3.796C1.318,4.882,1.935,5.842,2.681,5.936z"/>
	<polygon points="4.808,5.227 6.2,5.441 6.2,5.064 4.808,4.844 	"/>
	<polygon points="6.192,5.688 4.799,5.475 4.799,5.857 6.192,6.065 	"/>
	<polygon points="4.812,6.546 6.204,6.745 6.204,6.368 4.812,6.164 	"/>
	<path d="M5.425,4.047c0.348,0.043,0.63-0.342,0.63-0.856c0-0.511-0.278-0.966-0.621-1.021v0.562C5.568,2.757,5.68,2.938,5.68,3.141
		c0,0.208-0.115,0.363-0.255,0.346C5.284,3.468,5.168,3.283,5.168,3.074c0-0.005,0-0.009,0.002-0.014L4.787,3.01
		c0,0.005,0,0.01,0,0.015C4.787,3.545,5.074,4.004,5.425,4.047z"/>
</g>
<g>
</g>
<g>
</g>
<g>
</g>
<g>
</g>
<g>
</g>
<g>
</g>
<g>
</g>
<g>
</g>
<g>
</g>
<g>
</g>
<g>
</g>
<g>
</g>
<g>
</g>
<g>
</g>
<g>
</g>
</svg>
