<?xml version="1.0" encoding="iso-8859-1"?>
<!-- Generator: Adobe Illustrator 16.0.0, SVG Export Plug-In . SVG Version: 6.00 Build 0)  -->
<!DOCTYPE svg PUBLIC "-//W3C//DTD SVG 1.1//EN" "http://www.w3.org/Graphics/SVG/1.1/DTD/svg11.dtd">
<svg version="1.1" id="Layer_1" xmlns="http://www.w3.org/2000/svg" xmlns:xlink="http://www.w3.org/1999/xlink" x="0px" y="0px"
	 width="32px" height="24.46px" viewBox="0 0 32 24.46" style="enable-background:new 0 0 32 24.46;" xml:space="preserve">
<g>
	<polygon points="13.885,21.995 0.002,14.586 0,16.479 13.885,24.46 32,14.048 32,12.349 13.885,21.988 	"/>
	<path d="M13.256,21.004L13.239,6.774L0.674,3.371l0.016,11.088L13.256,21.004z M9.179,7.966l3.229,1.02v0.987L9.179,8.896V7.966z
		 M9.179,9.717l3.229,1.126v0.987l-3.229-1.183V9.717z M9.179,11.293l3.229,1.222v0.988l-3.229-1.278V11.293z M5.179,6.702
		l3.112,0.983v0.915L5.179,7.563V6.702z M5.179,8.321l3.112,1.086v0.915l-3.112-1.14V8.321z M5.179,9.78l3.112,1.178v0.915
		l-3.112-1.231V9.78z M1.738,5.615l2.369,0.749v0.842l-2.369-0.79V5.615z M1.738,7.122l2.369,0.826v0.843L1.738,7.923V7.122z
		 M1.738,8.479l2.369,0.896v0.843L1.738,9.279V8.479z"/>
	<path d="M23.553,2.625v1.6l-9.668,2.619v14.488l15.138-7.885V9.354L32,8.087v-7.47L23.553,2.625z M18.591,16.55l-3.383,1.614
		v-1.945l3.383-1.498V16.55z M18.591,14.054l-3.383,1.456v-1.945l3.383-1.34V14.054z M18.591,11.511l-3.383,1.294v-1.945
		l3.383-1.178V11.511z M18.591,8.896l-3.383,1.128V8.079l3.383-1.012V8.896z M26.031,14.068l-1.658,0.829v-1.408l1.658-0.78V14.068z
		 M26.031,11.814l-1.658,0.748v-1.408l1.658-0.699V11.814z M26.031,9.279l-1.658,0.656V8.527l1.658-0.606V9.279z M26.031,7.025
		l-1.658,0.575V6.192l1.658-0.525V7.025z M26.031,4.912l-1.658,0.499V4.003l1.658-0.449V4.912z M27.942,13.112l-1.521,0.761v-1.348
		l1.521-0.716V13.112z M27.942,10.952l-1.521,0.686v-1.347l1.521-0.641V10.952z M27.942,8.523l-1.521,0.602V7.777l1.521-0.557V8.523
		z M27.942,6.363l-1.521,0.527V5.543l1.521-0.481V6.363z M27.942,4.339l-1.521,0.456V3.448l1.521-0.412V4.339z M29.673,7.838
		l-1.401,0.555V7.101l1.401-0.514V7.838z M29.673,5.764l-1.401,0.485V4.957l1.401-0.444V5.764z M29.673,3.818l-1.401,0.421V2.947
		l1.401-0.38V3.818z M31.301,7.194l-1.294,0.512V6.465l1.294-0.474V7.194z M31.301,5.199l-1.294,0.448v-1.24l1.294-0.41V5.199z
		 M31.301,3.329l-1.294,0.389v-1.24l1.294-0.351V3.329z"/>
	<polygon points="19.65,4.913 19.65,4.93 21.072,4.554 21.076,4.553 21.076,4.553 23.287,3.969 23.287,3.431 19.65,2.767 
		19.65,2.774 11.299,1.271 0.883,3.008 13.662,6.427 	"/>
	<polygon points="31.649,0.503 27.577,0 19.655,1.584 19.655,1.819 23.343,2.437 	"/>
	<polygon points="23.303,3.234 23.299,2.664 19.65,2.043 19.655,2.58 	"/>
</g>
<g>
</g>
<g>
</g>
<g>
</g>
<g>
</g>
<g>
</g>
<g>
</g>
<g>
</g>
<g>
</g>
<g>
</g>
<g>
</g>
<g>
</g>
<g>
</g>
<g>
</g>
<g>
</g>
<g>
</g>
</svg>
