<?xml version="1.0" encoding="iso-8859-1"?>
<!-- Generator: Adobe Illustrator 16.0.0, SVG Export Plug-In . SVG Version: 6.00 Build 0)  -->
<!DOCTYPE svg PUBLIC "-//W3C//DTD SVG 1.1//EN" "http://www.w3.org/Graphics/SVG/1.1/DTD/svg11.dtd">
<svg version="1.1" id="Layer_1" xmlns="http://www.w3.org/2000/svg" xmlns:xlink="http://www.w3.org/1999/xlink" x="0px" y="0px"
	 width="32px" height="21.994px" viewBox="0 0 32 21.994" style="enable-background:new 0 0 32 21.994;" xml:space="preserve">
<g>
	<path d="M31.976,0H16.659v10.525h15.316V0z M30.814,9.363H17.82V1.161h12.994V9.363z"/>
	<rect x="26.834" y="2.171" width="3.157" height="0.582"/>
	<rect x="26.815" y="3.134" width="3.158" height="0.58"/>
	<rect x="26.843" y="4.177" width="3.158" height="0.581"/>
	<path d="M19.426,4.74l0.024,0.009l0.095,0.226l-0.01,0.023c-0.288,0.652-0.27,0.67-0.221,0.719l0.383,0.375
		c0.017,0.016,0.044,0.026,0.067,0.026c0.021,0,0.087,0,0.654-0.256l0.022-0.011l0.234,0.095l0.009,0.023
		c0.267,0.659,0.294,0.659,0.36,0.659h0.542c0.068,0,0.097,0,0.344-0.661l0.01-0.024l0.232-0.094l0.022,0.009
		c0.384,0.162,0.607,0.244,0.665,0.244c0.024,0,0.052-0.011,0.068-0.026L23.313,5.7c0.048-0.049,0.068-0.068-0.235-0.707
		L23.067,4.97l0.095-0.226l0.022-0.009c0.677-0.263,0.677-0.288,0.677-0.356v-0.53c0-0.068,0-0.097-0.677-0.339L23.16,3.501
		l-0.095-0.226l0.01-0.024c0.288-0.651,0.268-0.672,0.221-0.719l-0.385-0.374c-0.016-0.016-0.043-0.026-0.066-0.026
		c-0.021,0-0.087,0-0.654,0.256l-0.022,0.011l-0.233-0.094l-0.01-0.024c-0.267-0.659-0.294-0.659-0.36-0.659h-0.542
		c-0.066,0-0.096,0-0.344,0.661L20.67,2.306L20.438,2.4l-0.022-0.009c-0.384-0.162-0.607-0.244-0.666-0.244
		c-0.024,0-0.051,0.011-0.067,0.026L19.298,2.55c-0.049,0.048-0.069,0.067,0.233,0.707l0.012,0.023l-0.096,0.227l-0.022,0.009
		c-0.676,0.261-0.676,0.287-0.676,0.354v0.531C18.749,4.47,18.749,4.498,19.426,4.74z M21.305,3.264
		c0.484,0,0.878,0.387,0.878,0.861c0,0.476-0.394,0.861-0.878,0.861s-0.878-0.386-0.878-0.861C20.427,3.65,20.82,3.264,21.305,3.264
		z"/>
	<path d="M23.79,6.375l-0.127,0.051L23.65,6.421c-0.209-0.088-0.331-0.133-0.363-0.133c-0.013,0-0.028,0.006-0.036,0.014
		l-0.21,0.206c-0.026,0.025-0.038,0.037,0.128,0.386l0.006,0.013l-0.053,0.123L23.11,7.034c-0.369,0.143-0.369,0.157-0.369,0.194
		v0.29c0,0.037,0,0.053,0.369,0.185l0.014,0.005l0.052,0.123L23.17,7.844C23.013,8.2,23.023,8.21,23.05,8.236l0.209,0.205
		c0.009,0.009,0.024,0.014,0.037,0.014c0.012,0,0.047,0,0.356-0.14l0.013-0.006l0.128,0.052l0.005,0.013
		c0.146,0.36,0.16,0.36,0.197,0.36h0.296c0.037,0,0.053,0,0.188-0.361l0.005-0.014l0.127-0.051l0.013,0.005
		c0.209,0.089,0.331,0.133,0.363,0.133c0.013,0,0.027-0.005,0.036-0.014l0.21-0.206C25.26,8.2,25.271,8.19,25.104,7.842
		l-0.006-0.014l0.052-0.123L25.163,7.7c0.369-0.143,0.369-0.157,0.369-0.194V7.217c0-0.037,0-0.054-0.37-0.185l-0.013-0.006
		l-0.052-0.123l0.006-0.013c0.156-0.356,0.146-0.366,0.119-0.393l-0.209-0.205c-0.009-0.008-0.023-0.014-0.037-0.014
		c-0.011,0-0.047,0-0.356,0.14l-0.013,0.006L24.48,6.374L24.476,6.36C24.329,6,24.314,6,24.278,6h-0.296
		c-0.036,0-0.053,0-0.188,0.361L23.79,6.375z M24.137,6.897c0.265,0,0.479,0.211,0.479,0.47s-0.215,0.471-0.479,0.471
		s-0.479-0.212-0.479-0.471S23.872,6.897,24.137,6.897z"/>
	<path d="M24.308,5.125l0.009,0.004l0.033,0.078l-0.004,0.008c-0.101,0.228-0.094,0.233-0.077,0.251l0.134,0.13
		c0.005,0.005,0.016,0.009,0.023,0.009c0.007,0,0.03,0,0.228-0.089l0.008-0.003l0.081,0.032l0.003,0.009
		c0.093,0.229,0.103,0.229,0.126,0.229h0.188c0.023,0,0.033,0,0.119-0.231l0.004-0.008l0.081-0.032l0.007,0.002
		C25.404,5.571,25.482,5.6,25.502,5.6c0.009,0,0.019-0.004,0.024-0.009l0.134-0.132c0.017-0.017,0.023-0.023-0.082-0.246
		l-0.004-0.008l0.033-0.078l0.008-0.003C25.851,5.032,25.851,5.023,25.851,5V4.815c0-0.023,0-0.033-0.235-0.118l-0.009-0.002
		l-0.033-0.079l0.004-0.009c0.1-0.227,0.093-0.233,0.076-0.25l-0.133-0.131c-0.006-0.005-0.016-0.009-0.023-0.009
		s-0.03,0-0.228,0.09l-0.008,0.004l-0.081-0.033l-0.004-0.008c-0.093-0.229-0.102-0.229-0.125-0.229h-0.188
		c-0.023,0-0.033,0-0.12,0.229L24.74,4.279l-0.081,0.032l-0.008-0.003c-0.133-0.056-0.211-0.085-0.231-0.085
		c-0.009,0-0.018,0.004-0.023,0.01l-0.133,0.13c-0.018,0.017-0.024,0.024,0.081,0.246l0.004,0.008l-0.033,0.079L24.308,4.7
		c-0.235,0.091-0.235,0.1-0.235,0.122v0.186C24.072,5.031,24.072,5.041,24.308,5.125z M24.961,4.612c0.169,0,0.306,0.134,0.306,0.3
		c0,0.164-0.137,0.299-0.306,0.299c-0.168,0-0.306-0.135-0.306-0.299C24.655,4.746,24.793,4.612,24.961,4.612z"/>
	<path d="M0,21.994h15.316V11.469H0V21.994z M1.161,12.63h12.994v8.203H1.161V12.63z"/>
	<rect x="10.175" y="13.876" width="3.157" height="0.581"/>
	<rect x="10.156" y="14.838" width="3.157" height="0.581"/>
	<rect x="10.184" y="15.882" width="3.157" height="0.581"/>
	<rect x="2.032" y="15.135" width="6.605" height="1.089"/>
	<rect x="2.032" y="16.786" width="5.045" height="1.089"/>
	<rect x="2.032" y="18.438" width="9.945" height="1.089"/>
	<path d="M16.684,11.433v10.525H32V11.433H16.684z M30.839,20.797H17.845v-8.202h12.994V20.797z"/>
	<rect x="26.858" y="13.55" width="3.157" height="0.581"/>
	<rect x="26.84" y="14.512" width="3.157" height="0.58"/>
	<rect x="26.867" y="15.555" width="3.157" height="0.581"/>
	<path d="M23.053,19.271c0.246-0.246,0.64-1.531,0.64-1.531s-1.285,0.395-1.531,0.64c-0.246,0.246-0.246,0.646,0.001,0.892
		C22.407,19.517,22.806,19.517,23.053,19.271z"/>
	<path d="M18.688,20.218h7.874V19.67l0.008-0.044c0.003-0.059,0.009-0.604,0.009-0.662c0-1.936-1.382-2.998-1.382-2.998
		c-0.69-0.592-1.587-0.952-2.568-0.952c-2.181,0-3.949,1.769-3.949,3.95c0,0.059,0.006,0.604,0.009,0.662V20.218z M19.64,19.03h0.81
		v-0.262h-0.753c0-0.003-0.057,0-0.057,0c0.031-0.678,0.29-1.354,0.777-1.888l0.021-0.022l0.037,0.032l0.539,0.539l0.169-0.17
		l-0.573-0.572c0.519-0.474,1.177-0.745,1.878-0.776h0.041c0,0,0.018-0.002,0.016,0.01v0.799h0.216v-0.809
		c0.106,0.004,0.213,0.018,0.318,0.033c0.603,0.08,1.162,0.339,1.615,0.754l-0.571,0.572l0.159,0.159l0.549-0.549l0.03-0.024
		l0.025,0.034c0.476,0.519,0.747,1.176,0.778,1.878h-0.809v0.262l0.813-0.001c0,0,0.001,0.563-0.002,0.596l-6.025,0.001
		C19.637,19.591,19.642,19.066,19.64,19.03z"/>
	<circle cx="28.625" cy="19.236" r="0.907"/>
	<circle cx="19.751" cy="13.61" r="0.635"/>
	<circle cx="21.813" cy="13.611" r="0.635"/>
	<circle cx="23.87" cy="13.611" r="0.635"/>
	<path d="M0.036,10.562h15.316V0.036H0.036V10.562z M1.198,1.197h12.993V9.4H1.198V1.197z"/>
	<path d="M6.368,2.424L5.836,4.071C6.312,4.22,6.658,4.663,6.658,5.188c0,0.263-0.088,0.504-0.234,0.699l1.371,1.059
		C8.168,6.457,8.39,5.848,8.39,5.188C8.39,3.895,7.539,2.797,6.368,2.424z"/>
	<path d="M5.209,6.429c-0.644,0-1.167-0.524-1.167-1.168s0.523-1.168,1.167-1.168c0.12,0,0.236,0.019,0.346,0.053l0.532-1.648
		C5.81,2.409,5.515,2.361,5.209,2.361c-1.599,0-2.899,1.301-2.899,2.899S3.61,8.16,5.209,8.16c0.938,0,1.774-0.448,2.305-1.143
		L6.142,5.96C5.929,6.243,5.591,6.429,5.209,6.429z"/>
	<rect x="10.211" y="2.444" width="3.157" height="0.58"/>
	<rect x="10.192" y="3.405" width="3.158" height="0.581"/>
	<rect x="10.22" y="4.449" width="3.158" height="0.58"/>
	<path d="M11.634,5.691v0.857c0.31,0.01,0.559,0.265,0.559,0.577c0,0.318-0.259,0.578-0.578,0.578c-0.318,0-0.578-0.26-0.578-0.578
		c0-0.008,0.001-0.015,0.002-0.021H10.18c0,0.007,0,0.014,0,0.021c0,0.791,0.644,1.436,1.435,1.436c0.792,0,1.436-0.645,1.436-1.436
		C13.05,6.341,12.416,5.701,11.634,5.691z"/>
</g>
<g>
</g>
<g>
</g>
<g>
</g>
<g>
</g>
<g>
</g>
<g>
</g>
<g>
</g>
<g>
</g>
<g>
</g>
<g>
</g>
<g>
</g>
<g>
</g>
<g>
</g>
<g>
</g>
<g>
</g>
</svg>
