<?xml version="1.0" encoding="iso-8859-1"?>
<!-- Generator: Adobe Illustrator 16.0.0, SVG Export Plug-In . SVG Version: 6.00 Build 0)  -->
<!DOCTYPE svg PUBLIC "-//W3C//DTD SVG 1.1//EN" "http://www.w3.org/Graphics/SVG/1.1/DTD/svg11.dtd">
<svg version="1.1" id="Layer_1" xmlns="http://www.w3.org/2000/svg" xmlns:xlink="http://www.w3.org/1999/xlink" x="0px" y="0px"
	 width="32.046px" height="23.529px" viewBox="0 0 32.046 23.529" style="enable-background:new 0 0 32.046 23.529;"
	 xml:space="preserve">
<g>
	<path d="M18.813,7.767l-0.55,1.798c0.491,0.157,0.85,0.639,0.85,1.21c0,0.286-0.091,0.549-0.243,0.761l1.433,1.17
		c0.395-0.533,0.63-1.203,0.63-1.932C20.932,9.348,20.033,8.152,18.813,7.767z"/>
	<path d="M17.622,12.115c-0.652-0.006-1.179-0.572-1.179-1.262c0-0.689,0.526-1.255,1.179-1.26c0.123-0.001,0.241,0.018,0.353,0.054
		l0.547-1.795c-0.285-0.09-0.587-0.136-0.899-0.129c-1.61,0.033-2.895,1.436-2.895,3.129c0,1.694,1.284,3.099,2.895,3.133
		c0.963,0.02,1.828-0.452,2.383-1.203l-1.427-1.169C18.359,11.921,18.013,12.119,17.622,12.115z"/>
	<path d="M30.156,8.697c1.89-0.733,1.89-0.804,1.89-0.994V6.221c0-0.19,0-0.27-1.891-0.944l-0.067-0.024l-0.266-0.633l0.028-0.064
		c0.805-1.823,0.749-1.877,0.615-2.009L29.395,1.5c-0.044-0.043-0.121-0.074-0.188-0.074c-0.061,0-0.242,0-1.826,0.717l-0.063,0.029
		l-0.652-0.263l-0.026-0.065C25.895,0,25.817,0,25.633,0h-1.514c-0.186,0-0.269,0-0.959,1.847l-0.026,0.067l-0.649,0.265
		l-0.063-0.026c-1.071-0.452-1.696-0.681-1.859-0.681c-0.066,0-0.144,0.03-0.188,0.073l-1.073,1.049
		c-0.136,0.134-0.192,0.19,0.653,1.975l0.031,0.066l-0.266,0.632l-0.065,0.025c-0.215,0.083-0.402,0.157-0.571,0.224
		c-0.063,0.025-0.438,0.269-0.673,0.417L13.48,5.663l-1.696,8.13l-0.001,0l-0.033,0.005c-0.41-0.696-1.174-1.092-2.239-1.092H9.045
		c-0.625,0.61-1.718,1.018-2.97,1.018s-2.345-0.408-2.97-1.018H2.639c-1.643,0-2.584,0.928-2.584,2.476s-0.05,5.781-0.05,6.625
		s-0.101,1.722,0.627,1.722c0.269,0,1.125,0,2.235,0c1.059,0,2.076,0,3.009,0c0.129,0,0.272,0,0.397,0c1.196,0,2.19,0,2.762,0
		c0.102,0,0.173,0,0.247,0c0.032,0,0.08,0,0.106,0c0.93,0,1.644,0,1.882,0c0.099,0,0.192,0,0.247,0c0.729,0,0.627-0.878,0.627-1.722
		c0-0.13-0.002-0.349-0.003-0.618h19.882v-1.344H12.13c-0.004-0.379-0.008-0.784-0.012-1.197l1.895,0.725l9.376-1.491l0.939-3.895
		h1.368c0.19,0,0.269,0,0.959-1.848l0.026-0.067l0.65-0.263l0.063,0.025c1.07,0.453,1.695,0.682,1.857,0.682
		c0.065,0,0.145-0.029,0.189-0.073l1.073-1.051c0.136-0.135,0.191-0.19-0.655-1.973l-0.031-0.067l0.265-0.63L30.156,8.697z
		 M13.951,6.423l9.806,0.655l-2.146,9.061l-9.188-2.6L13.951,6.423z M12.095,15.182c0-0.278-0.04-0.528-0.1-0.764l0.035-0.006
		l7.777,2.221l-3.552,0.503l-4.159-1.354C12.096,15.557,12.095,15.351,12.095,15.182z M12.1,16.331l1.073,0.359l-1.069,0.16
		C12.102,16.671,12.101,16.497,12.1,16.331z M25.451,9.333l0.566-2.347L25.448,6.59L22.91,17.418l-8.834,1.292v-0.004l-1.963-0.718
		c-0.002-0.187-0.004-0.371-0.005-0.554l1.999,0.717l8.259-1.109l2.547-10.756L22.64,6.163c0.027-0.101,0.056-0.201,0.063-0.216
		c0.397-0.802,1.235-1.357,2.204-1.357c1.353,0,2.452,1.078,2.452,2.404C27.359,8.135,26.542,9.09,25.451,9.333z"/>
	<path d="M1.618,7.651C1.609,7.709,1.597,7.767,1.59,7.826c-0.273,2.544,1.526,4.833,4.012,5.102
		c2.487,0.269,4.734-1.583,5.01-4.127c0.041-0.393,0.029-0.778-0.023-1.152c0.292-0.002,0.473-0.006,0.513-0.012
		c0.317-0.04,0.57-0.063,0.596-0.413c0.005-0.467-0.008-0.392-0.001-0.461c0.008-0.404-0.229-0.357-0.491-0.385
		s-0.583,0.012-0.583,0.012S9.868,1.314,5.172,2.143C3.768,2.391,2.843,2.984,2.235,3.692C3.434,3.096,4.848,2.81,6.078,2.979
		C7.251,3.141,8.171,3.685,8.764,4.55C8.369,4.257,7.926,4.027,7.442,3.877C6.959,3.592,6.446,3.454,6.019,3.395
		C4.601,3.193,2.93,3.641,1.693,4.49C0.9,6.002,1.13,7.649,1.13,7.649S1.313,7.649,1.618,7.651z M2.425,7.916
		C2.434,7.827,2.45,7.74,2.467,7.653c1.897,0.003,5.361,0.009,7.275,0.001C9.801,7.995,9.816,8.349,9.776,8.71
		c-0.226,2.084-2.059,3.602-4.084,3.383C3.664,11.874,2.2,10,2.425,7.916z"/>
</g>
<g>
</g>
<g>
</g>
<g>
</g>
<g>
</g>
<g>
</g>
<g>
</g>
<g>
</g>
<g>
</g>
<g>
</g>
<g>
</g>
<g>
</g>
<g>
</g>
<g>
</g>
<g>
</g>
<g>
</g>
</svg>
