<?xml version="1.0" encoding="iso-8859-1"?>
<!-- Generator: Adobe Illustrator 16.0.0, SVG Export Plug-In . SVG Version: 6.00 Build 0)  -->
<!DOCTYPE svg PUBLIC "-//W3C//DTD SVG 1.1//EN" "http://www.w3.org/Graphics/SVG/1.1/DTD/svg11.dtd">
<svg version="1.1" id="Layer_1" xmlns="http://www.w3.org/2000/svg" xmlns:xlink="http://www.w3.org/1999/xlink" x="0px" y="0px"
	 width="32px" height="29.951px" viewBox="0 0 32 29.951" style="enable-background:new 0 0 32 29.951;" xml:space="preserve">
<g>
	<path d="M2.437,17.98c-0.214-0.808-0.521-4.987,0.334-6.8l0.236,0.11c-0.286,0.607-0.438,1.54-0.503,2.521l1.845-2.704l0.067-0.002
		c0.067-0.002,0.229-0.007,0.452-0.014c0.002-0.452-0.083-2.626-1.953-3.736C2.644,7.386,2.411,7.431,2.236,7.489
		c-2.776,1.288-2.383,8.967-1.872,11.117c0.406,0.609,0.871,0.846,1.325,0.658C2.209,19.051,2.54,18.369,2.437,17.98z"/>
	<path d="M5.646,11.071c0.63-0.016,1.369-0.031,1.911-0.034c-0.142-0.932-0.6-2.903-1.452-3.645C5.511,7.323,4.79,7.284,4.113,7.29
		C5.511,8.631,5.639,10.543,5.646,11.071z"/>
	<path d="M9.051,14.721c-0.183-1.848-0.628-3.306-0.813-3.416c-0.205-0.033-2.331,0.016-3.749,0.059l-2.012,2.948
		c-0.059,1.535,0.071,3.077,0.211,3.601c0.147,0.557-0.298,1.346-0.899,1.594c-0.016,0.006-0.034,0.012-0.052,0.018v9.188H1.736
		v1.239h2.736c0.342,0,0.619-0.278,0.619-0.62c0-0.29-0.201-0.532-0.471-0.599v-8.238l0.901,0.146v8.757h0.002v0.538h2.735
		c0.342,0,0.62-0.277,0.62-0.619c0-0.298-0.21-0.546-0.49-0.604v-7.888C8.491,19.771,8.856,16.074,9.051,14.721z M5.636,12.702
		c-0.234,0-0.423-0.181-0.423-0.402s0.189-0.401,0.423-0.401s0.423,0.18,0.423,0.401S5.87,12.702,5.636,12.702z M8.068,12.658
		c-0.234,0-0.423-0.18-0.423-0.401s0.189-0.402,0.423-0.402s0.423,0.181,0.423,0.402S8.302,12.658,8.068,12.658z"/>
	<path d="M13.917,15.13v-1.308c0.374-0.183,0.634-0.563,0.634-1.008s-0.26-0.825-0.634-1.007v-0.76
		c0.651-0.303,1.103-0.96,1.103-1.726c0-0.742-0.397-1.367-1.017-1.682c-0.082-0.04-0.196,0.02-0.138,0.135
		c0.041,0.091,0.06,0.097,0.111,0.233c0.052,0.138,0.155,0.729,0.083,1.039s-0.504,0.84-0.969,0.84
		c-0.005,0-0.023-0.001-0.023-0.001c-0.005,0.001-0.012,0.001-0.018,0.001c-0.464,0-0.896-0.529-0.969-0.84
		c-0.071-0.311,0.032-0.901,0.083-1.039c0.052-0.137,0.071-0.143,0.11-0.233c0.059-0.115-0.056-0.175-0.137-0.135
		c-0.62,0.314-1.018,0.939-1.018,1.682c0,0.779,0.468,1.447,1.139,1.742v0.821c-0.899,0-2.014,0-2.203,0
		c-0.325,0-2.077-3.86-2.765-4.231c0.75,1.294,1.021,3.119,1.062,3.426c0.346,0.194,0.704,1.593,0.896,3.08
		c0.411-0.159,1.912-0.206,3.009-0.219v1.188c0,0.458,0.371,0.829,0.829,0.829C13.544,15.959,13.917,15.588,13.917,15.13z
		 M13.104,15.542c-0.211,0-0.381-0.171-0.381-0.381s0.17-0.381,0.381-0.381c0.21,0,0.38,0.171,0.38,0.381
		S13.314,15.542,13.104,15.542z"/>
	<path d="M2.633,3.78C2.631,3.815,2.628,3.852,2.628,3.889c0,1.59,1.264,2.884,2.818,2.884c1.554,0,2.818-1.294,2.818-2.884
		c0-0.245-0.034-0.482-0.091-0.71c0.179-0.021,0.292-0.036,0.315-0.042c0.194-0.046,0.348-0.077,0.341-0.295
		C8.801,2.554,8.797,2.602,8.797,2.558c-0.022-0.25-0.166-0.205-0.329-0.205c-0.165,0-0.359,0.046-0.359,0.046
		S7.306-0.685,4.46,0.141C3.609,0.387,3.078,0.815,2.75,1.293c0.7-0.449,1.555-0.719,2.326-0.697
		c0.735,0.022,1.34,0.296,1.764,0.791C6.576,1.233,6.287,1.12,5.979,1.06C5.66,0.916,5.335,0.865,5.067,0.857
		c-0.89-0.03-1.892,0.358-2.599,0.965C2.08,2.809,2.332,3.81,2.332,3.81S2.444,3.798,2.633,3.78z M3.157,3.723
		C4.33,3.6,6.468,3.373,7.651,3.239c0.059,0.207,0.092,0.425,0.092,0.65c0,1.303-1.031,2.362-2.297,2.362
		c-1.267,0-2.297-1.06-2.297-2.362C3.149,3.833,3.153,3.779,3.157,3.723z"/>
	<polygon points="25.784,17.705 25.784,16.964 25.439,16.964 25.439,16.715 23.07,16.715 23.07,16.964 22.567,16.964 22.567,17.705 
		21.958,17.705 21.958,17.463 20.555,17.463 20.555,17.705 20.233,17.705 20.233,16.808 19.531,16.808 19.531,16.233 16.313,16.233 
		16.313,16.808 15.611,16.808 15.611,17.705 13.21,17.705 13.21,20.123 14.583,20.123 14.583,29.951 16.558,29.951 16.558,20.123 
		28.697,20.123 28.697,29.951 30.671,29.951 30.671,20.123 32,20.123 32,17.705 	"/>
</g>
<g>
</g>
<g>
</g>
<g>
</g>
<g>
</g>
<g>
</g>
<g>
</g>
<g>
</g>
<g>
</g>
<g>
</g>
<g>
</g>
<g>
</g>
<g>
</g>
<g>
</g>
<g>
</g>
<g>
</g>
</svg>
