<?xml version="1.0" encoding="iso-8859-1"?>
<!-- Generator: Adobe Illustrator 16.0.0, SVG Export Plug-In . SVG Version: 6.00 Build 0)  -->
<!DOCTYPE svg PUBLIC "-//W3C//DTD SVG 1.1//EN" "http://www.w3.org/Graphics/SVG/1.1/DTD/svg11.dtd">
<svg version="1.1" id="Layer_1" xmlns="http://www.w3.org/2000/svg" xmlns:xlink="http://www.w3.org/1999/xlink" x="0px" y="0px"
	 width="32px" height="21.234px" viewBox="0 0 32 21.234" style="enable-background:new 0 0 32 21.234;" xml:space="preserve">
<g>
	<path d="M13.263,11.212l-0.719-0.562c-0.102,0.163-0.163,0.353-0.163,0.559c0,0.289,0.117,0.551,0.306,0.743L13.263,11.212z"/>
	<path d="M12.882,12.107c0.164,0.103,0.355,0.165,0.563,0.165c0.299,0,0.567-0.125,0.761-0.324l-0.745-0.582L12.882,12.107z"/>
	<path d="M13.979,10.295c-0.157-0.092-0.339-0.149-0.534-0.149c-0.291,0-0.555,0.118-0.746,0.308l0.719,0.562L13.979,10.295z"/>
	<path d="M14.354,11.748c0.095-0.159,0.152-0.341,0.152-0.539c0-0.3-0.126-0.571-0.327-0.764l-0.565,0.724L14.354,11.748z"/>
	<path d="M29.713,19.234c-0.019-0.472-0.202-5.134-0.123-5.668c0.083-0.563,0.188-2.709-0.042-3.73
		c-0.229-1.021-0.416-2.594-0.271-2.625s1.125,0.688,1.354,0.938c0.151,0.166-0.039,1.163-0.187,1.817
		c-0.097,0.115-0.157,0.261-0.157,0.423c0,0.054,0.008,0.105,0.021,0.156v0c0.07,0.287,0.327,0.5,0.636,0.5s0.565-0.213,0.636-0.5
		h0.021c0,0,0.636-2.313,0.303-2.98c-0.334-0.667-3.396-2.98-3.751-2.98s-1.293,0.063-1.542,0.125
		c-0.177,0.044-1.755,1.354-2.668,2.122V4.032h-6.241l0.021,7.315h-1.086v-0.573l-1.333-0.003v-0.667h-0.375V9.146h0.333V8.416
		h-0.333V7.729h-3.063v0.688h-0.334v0.729h0.334v0.958h-0.37v0.667l-1.421,0.003v0.573h-1.03L9.028,4.035H1.933l0.016,7.921h0.01
		v7.278H0v2h32v-2H29.713z M18.598,7.742h1.219v0.615h-1.219V7.742z M18.605,9.317V8.703h1.219v0.615H18.605z M19.82,9.66v0.615
		h-1.219V9.66H19.82z M13.444,9.896c0.724,0,1.313,0.589,1.313,1.313c0,0.724-0.589,1.313-1.313,1.313
		c-0.725,0-1.313-0.589-1.313-1.313C12.131,10.485,12.72,9.896,13.444,9.896z M7.46,5.019h0.667v5.379H7.46V5.019z M19.088,19.442
		H6.876V17.65h12.212V19.442z M22.358,14.795H3.568v-0.708h18.79V14.795z M20.229,9.332V8.717h1.219v0.615H20.229z M21.444,9.674
		v0.615h-1.219V9.674H21.444z M21.44,8.371h-1.219V7.756h1.219V8.371z M22.24,8.366h-0.43V7.751h0.729
		c-0.184,0.116-0.306,0.32-0.306,0.553C22.234,8.325,22.238,8.345,22.24,8.366z M23.033,10.284h-1.219V9.669h1.219V10.284z
		 M23.037,9.327h-1.219V8.712h0.562c0.12,0.15,0.303,0.249,0.511,0.249c0.051,0,0.1-0.007,0.146-0.018V9.327z M23.078,7.335h-4.47
		V4.991h4.47V7.335z M26.109,10.773c-0.219,0.563-1.458,2.417-1.375,3.272c0.064,0.663,0.079,4.304,0.1,4.623
		c-0.354,0-0.538,0.321-0.555,0.565l-0.347,0.02l0.004-10.781c0.69-0.477,1.977-1.325,2.069-1.262
		C26.141,7.304,26.327,10.211,26.109,10.773z M28.017,18.65c-0.259,0-0.469,0.21-0.469,0.469c0,0.04,0.006,0.078,0.016,0.115h-0.955
		c-0.012-0.591-0.082-4.239-0.082-4.813c0-0.625,1.396-2.084,1.396-2.084s-0.104,2.042-0.104,2.417c0,0.298,0.145,2.857,0.204,3.896
		H28.017z"/>
	<path d="M25.174,2.656c0.016-0.001,0.086-0.016,0.198-0.042c0.014,0.148,0.044,0.298,0.096,0.445
		c0.337,0.954,1.37,1.462,2.303,1.133c0.932-0.329,1.417-1.373,1.08-2.327c-0.008-0.022-0.018-0.043-0.026-0.065
		c0.117-0.028,0.188-0.045,0.188-0.045s-0.061-0.654-0.504-1.164c-0.553-0.214-1.236-0.235-1.764-0.029
		C26.585,0.625,26.4,0.724,26.24,0.878c-0.172,0.102-0.322,0.23-0.447,0.379c0.149-0.387,0.454-0.68,0.891-0.849
		c0.458-0.176,1.028-0.195,1.543-0.074c-0.298-0.217-0.707-0.362-1.27-0.33c-1.883,0.107-1.712,2.129-1.712,2.129
		s-0.126,0.013-0.225,0.048s-0.194,0.038-0.154,0.193c0.009,0.026-0.003-0.001,0.041,0.178C24.949,2.684,25.048,2.67,25.174,2.656z
		 M28.498,1.879c0.014,0.032,0.028,0.064,0.04,0.097c0.275,0.782-0.118,1.636-0.879,1.904c-0.759,0.268-1.603-0.149-1.878-0.931
		c-0.048-0.135-0.074-0.273-0.083-0.41C26.437,2.369,27.768,2.053,28.498,1.879z"/>
</g>
<g>
</g>
<g>
</g>
<g>
</g>
<g>
</g>
<g>
</g>
<g>
</g>
<g>
</g>
<g>
</g>
<g>
</g>
<g>
</g>
<g>
</g>
<g>
</g>
<g>
</g>
<g>
</g>
<g>
</g>
</svg>
