<?xml version="1.0" encoding="iso-8859-1"?>
<!-- Generator: Adobe Illustrator 16.0.0, SVG Export Plug-In . SVG Version: 6.00 Build 0)  -->
<!DOCTYPE svg PUBLIC "-//W3C//DTD SVG 1.1//EN" "http://www.w3.org/Graphics/SVG/1.1/DTD/svg11.dtd">
<svg version="1.1" id="Layer_1" xmlns="http://www.w3.org/2000/svg" xmlns:xlink="http://www.w3.org/1999/xlink" x="0px" y="0px"
	 width="32px" height="31.612px" viewBox="0 0 32 31.612" style="enable-background:new 0 0 32 31.612;" xml:space="preserve">
<g>
	<path d="M3.117,22.259c-0.068,0.289-3.065,8.024-3.065,8.024l0.004,0.013C0.022,30.395,0,30.496,0,30.605
		c0,0.534,0.434,0.967,0.968,0.967h2.839c0.533,0,0.967-0.433,0.967-0.967s-0.434-0.967-0.967-0.967H3.248
		c0.953-2.089,2.642-5.98,2.681-6.255C5.983,23,6.065,21.93,6.065,21.93l-2.742-2.921C3.323,19.009,3.186,21.971,3.117,22.259z"/>
	<path d="M5.192,4.051C5.184,4.095,5.174,4.137,5.167,4.182C4.89,6.071,6.169,7.828,8.015,8.1c1.848,0.271,3.577-1.046,3.854-2.937
		c0.042-0.292,0.044-0.58,0.015-0.859c0.218,0.005,0.354,0.008,0.383,0.004c0.238-0.021,0.427-0.03,0.456-0.291
		c0.017-0.347,0.004-0.292,0.011-0.344c0.019-0.302-0.159-0.273-0.355-0.301c-0.195-0.029-0.434-0.007-0.434-0.007
		s-0.419-3.808-3.945-3.322C6.944,0.188,6.238,0.604,5.766,1.116c0.909-0.412,1.974-0.584,2.887-0.425
		c0.869,0.154,1.541,0.587,1.958,1.249C10.325,1.711,9.999,1.526,9.644,1.4c-0.353-0.226-0.73-0.344-1.048-0.399
		C7.543,0.812,6.285,1.098,5.339,1.695C4.703,2.802,4.828,4.036,4.828,4.036S4.965,4.041,5.192,4.051z M5.786,4.271
		c0.01-0.065,0.025-0.13,0.039-0.194c1.416,0.056,3.998,0.158,5.428,0.205c0.033,0.257,0.035,0.521-0.005,0.789
		C11.022,6.62,9.61,7.7,8.107,7.479C6.601,7.259,5.561,5.82,5.786,4.271z"/>
	<rect x="19.976" y="25.39" width="11.438" height="1.357"/>
	<rect x="19.966" y="23.086" width="11.438" height="1.357"/>
	<rect x="19.966" y="20.884" width="11.438" height="1.358"/>
	<rect x="19.971" y="18.816" width="11.438" height="1.358"/>
	<path d="M32,27.498H19.163V16.595c0-0.363-0.295-0.658-0.658-0.658h-2.453c-0.045-0.094-0.103-0.179-0.171-0.255l0.005-0.006
		c0,0-6.762-6.617-7.27-6.747c-0.507-0.13-2.283-0.57-2.527-0.621C5.845,8.255,5.448,8.215,5.298,8.75
		c-0.151,0.534-2.41,7.934-1.976,8.9c0.494,1.098,4.663,4.938,4.883,5.377c0.199,0.398,0.127,6.446,0.112,7.56
		c-0.001,0.02-0.006,0.038-0.006,0.059c0,0.016,0.004,0.03,0.004,0.046c0,0.045-0.001,0.071-0.001,0.071h0.009
		c0.059,0.479,0.461,0.85,0.955,0.85h2.839c0.534,0,0.967-0.433,0.967-0.967c0-0.533-0.433-0.967-0.967-0.967h-1.174
		c0.099-2.187,0.296-6.968,0.17-7.475c-0.165-0.658-3.142-4.21-3.142-4.21l1.331-4.842l5.02,4.088l0.004-0.005
		c0.196,0.18,0.454,0.292,0.739,0.292c0.276,0,0.525-0.105,0.718-0.273h2.063v10.244v0.781v0.7h1.254
		c-0.166,0.266-0.267,0.575-0.267,0.911c0,0.95,0.773,1.722,1.723,1.722s1.722-0.771,1.722-1.722c0-0.336-0.101-0.646-0.267-0.911
		h5.682c-0.115,0.231-0.207,0.596-0.207,0.87c0,0.95,0.772,1.723,1.722,1.723c0.95,0,1.723-0.772,1.723-1.723
		c0-0.274-0.05-0.639-0.164-0.87H32V27.498z M20.557,30.625c-0.405,0-0.735-0.33-0.735-0.734c0-0.405,0.33-0.734,0.735-0.734
		s0.734,0.329,0.734,0.734C21.291,30.295,20.962,30.625,20.557,30.625z M29.224,30.682c-0.428,0-0.773-0.346-0.773-0.773
		c0-0.194,0.078-0.365,0.195-0.501c0.069-0.091,0.157-0.162,0.267-0.204c0.096-0.043,0.2-0.068,0.312-0.068
		c0.427,0,0.773,0.347,0.773,0.773C29.997,30.336,29.65,30.682,29.224,30.682z"/>
</g>
<g>
</g>
<g>
</g>
<g>
</g>
<g>
</g>
<g>
</g>
<g>
</g>
<g>
</g>
<g>
</g>
<g>
</g>
<g>
</g>
<g>
</g>
<g>
</g>
<g>
</g>
<g>
</g>
<g>
</g>
</svg>
