<?xml version="1.0" encoding="iso-8859-1"?>
<!-- Generator: Adobe Illustrator 16.0.0, SVG Export Plug-In . SVG Version: 6.00 Build 0)  -->
<!DOCTYPE svg PUBLIC "-//W3C//DTD SVG 1.1//EN" "http://www.w3.org/Graphics/SVG/1.1/DTD/svg11.dtd">
<svg version="1.1" id="Layer_1" xmlns="http://www.w3.org/2000/svg" xmlns:xlink="http://www.w3.org/1999/xlink" x="0px" y="0px"
	 width="25.107px" height="32px" viewBox="0 0 25.107 32" style="enable-background:new 0 0 25.107 32;" xml:space="preserve">
<path d="M11.687,6.932c0.292,0,0.528-0.236,0.528-0.528c0-0.292-0.236-0.528-0.528-0.528c-0.058,0-0.113,0.012-0.166,0.029
	c0.039,0.043,0.063,0.098,0.063,0.161c0,0.135-0.109,0.245-0.245,0.245c-0.059,0-0.112-0.024-0.154-0.06
	c-0.015,0.049-0.025,0.1-0.025,0.154C11.159,6.695,11.396,6.932,11.687,6.932z"/>
<path d="M14.175,6.886c0.292,0,0.528-0.236,0.528-0.528c0-0.292-0.236-0.528-0.528-0.528c-0.06,0-0.114,0.012-0.166,0.03
	c0.037,0.043,0.063,0.098,0.063,0.16c0,0.135-0.109,0.245-0.244,0.245c-0.06,0-0.113-0.024-0.155-0.06
	c-0.015,0.048-0.025,0.1-0.025,0.153C13.646,6.65,13.883,6.886,14.175,6.886z"/>
<path d="M12.942,8.674c0.553,0,0.81-0.617,0.81-0.617h-1.633C12.119,8.057,12.389,8.674,12.942,8.674z"/>
<path d="M9.365,4.478c-0.057,0.544-0.212,2.887,1.02,4.294c0.612,0.699,1.468,1.054,2.544,1.054c0.01,0,0.019-0.001,0.027-0.001
	c0.01,0,0.019,0.001,0.028,0.001c1.075,0,1.931-0.355,2.543-1.054c1.231-1.408,1.076-3.75,1.021-4.294
	c0.29-0.071,0.48-0.047,0.537-0.097c0.11-0.096,0.124-0.837,0.014-1.001c-0.109-0.165-0.565-0.089-0.648-0.24
	c-0.067-0.125-0.471-2.166-2.255-2.89v2.572h-0.64V0.063C13.368,0.028,13.169,0.007,12.959,0v0c-0.001,0-0.002,0-0.003,0
	c0,0-0.001,0-0.002,0v0c-0.211,0.006-0.41,0.028-0.597,0.063v2.758h-0.641V0.25c-1.783,0.724-2.188,2.765-2.256,2.89
	C9.379,3.29,8.924,3.214,8.813,3.379C8.704,3.543,8.718,4.284,8.827,4.38C8.885,4.43,9.074,4.407,9.365,4.478z M9.793,4.635
	c0.184,0.091,0.389,0.223,0.612,0.417c0.372,0,1.777,0.005,2.445,0.008v0.001c0,0,0.039,0,0.105,0c0.066,0,0.105,0,0.105,0V5.06
	c0.668-0.002,2.074-0.008,2.446-0.008c0.223-0.194,0.428-0.326,0.612-0.417c0.05,0.653,0.109,2.668-0.924,3.849
	c-0.524,0.599-1.27,0.903-2.212,0.903c-0.01,0-0.018-0.001-0.025-0.001v0c-0.001,0-0.002,0-0.003,0c0,0-0.001,0-0.002,0v0
	c-0.009,0-0.017,0.001-0.025,0.001c-0.943,0-1.688-0.304-2.213-0.903C9.683,7.304,9.742,5.288,9.793,4.635z"/>
<ellipse cx="15.429" cy="25.721" rx="0.627" ry="0.614"/>
<ellipse cx="14.526" cy="29.441" rx="0.525" ry="0.515"/>
<g>
	<circle cx="10.183" cy="27.192" r="0.953"/>
	<path d="M24.981,24.223c-0.081-0.081-0.19-0.127-0.306-0.127l-3.345,0.009v-0.702h-1.079V22.55h-4.594
		c0.262-0.14,0.479-0.255,0.523-0.274c0.128-0.054,0.089-0.136,0.062-0.187c-0.006-0.012-0.045-0.078-0.103-0.172l1.837-1.112
		c0.255,0.176,0.578,0.243,0.896,0.19c0.195,0.117,0.422,0.188,0.667,0.188c0.707,0,1.279-0.562,1.285-1.258l0.725-0.439
		c0.596-0.361,0.803-1.107,0.463-1.669c-0.196-0.324-0.533-0.51-0.896-0.544c0.069-0.905,0.105-2.024-0.021-2.708
		c-0.539-2.95-4.415-5.168-5.458-5.06c-0.327,0.047-0.782,1.367-2.809,1.367c-2.027,0-2.287-1.32-2.614-1.367
		c-1.043-0.108-4.955,1.953-5.495,4.902c-0.14,0.766,0.041,2.143,0.183,2.884l-0.801-0.335c-0.467-0.196-1.004,0.024-1.199,0.49
		s0.024,1.003,0.491,1.199l1.649,0.69c-0.002,0.026-0.008,0.05-0.008,0.077c0,0.7,0.575,1.268,1.285,1.268
		c0.375,0,0.71-0.161,0.945-0.414l0.285,0.12c0.03,0.792,0.508,1.534,1.287,1.86c0.756,0.316,1.562,0.178,2.146-0.32
		c0.076-0.065,0.064-0.208-0.077-0.197c-0.11,0.001-0.124,0.018-0.285,0.013c-0.162-0.007-0.809-0.153-1.094-0.359
		c-0.286-0.206-0.641-0.872-0.442-1.345c0.002-0.006,0.011-0.023,0.011-0.023c0.002-0.006,0.004-0.013,0.006-0.019
		c0.199-0.473,0.922-0.688,1.27-0.628c0.347,0.059,0.905,0.417,1.022,0.528c0.118,0.111,0.115,0.133,0.191,0.212
		c0.092,0.108,0.202,0.018,0.195-0.083c-0.057-0.765-0.522-1.437-1.278-1.753c-0.794-0.332-1.675-0.14-2.261,0.417l-1.036-0.434
		c-0.237-1.524-0.394-2.713-0.183-3.057c0.396-0.648,1.609-1.917,1.609-1.917l0.021,4.784c0.604-0.29,1.325-0.325,1.961-0.059
		c0.845,0.354,1.388,1.101,1.453,1.998c0.008,0.118-0.032,0.232-0.111,0.317c-0.157,0.168-0.434,0.159-0.59-0.028
		c-0.027-0.026-0.05-0.055-0.073-0.084c-0.021-0.026-0.042-0.053-0.096-0.104c-0.093-0.087-0.599-0.406-0.874-0.453
		c-0.256-0.044-0.823,0.142-0.955,0.456l-0.015,0.036c-0.14,0.333,0.147,0.865,0.343,1.006c0.226,0.162,0.81,0.299,0.937,0.305
		l0.048,0c0.044,0,0.069-0.003,0.095-0.005c0.036-0.004,0.071-0.008,0.127-0.009h0.001c0.192,0,0.335,0.096,0.392,0.25
		c0.015,0.04,0.022,0.081,0.023,0.122l1.551,0.003v0l0.058,0l0.059,0v0l0.336,0c0.046-0.17,0.156-0.325,0.324-0.435l0.149-0.101
		c0.331-0.223,1.105-0.746,1.198-0.815c0.173-0.141,0.343-0.17,0.456-0.17c0.078,0,0.198,0.015,0.324,0.086l1.147-0.695
		c0.03-0.279,0.126-0.547,0.277-0.785l0.023-5.619c0,0,1.178,1.427,1.573,2.075c0.182,0.296,0.086,1.996-0.066,3.062l-0.615,0.373
		c-0.445,0.27-0.674,0.757-0.617,1.22l-1.836,1.111c-0.061-0.099-0.103-0.167-0.11-0.178c-0.032-0.048-0.086-0.12-0.194-0.032
		c-0.087,0.072-1.042,0.713-1.393,0.95c-0.13,0.083-0.097,0.178-0.06,0.239c0.018,0.028,0.141,0.232,0.273,0.45H5.251v0.53h-1.69
		v0.8H1.007C0.45,23.88,0,24.332,0,24.888v6.097c0,0.556,0.45,1.007,1.007,1.007s1.007-0.451,1.007-1.007v-5.09h1.547l0.016,0.742
		h1.69l-0.016,5.337h15.001v-3.957h1.079v-0.575h1.457l-0.01,4.101c0,0.238,0.193,0.432,0.432,0.432s0.432-0.193,0.432-0.432
		l0.01-4.532c0-0.239-0.193-0.432-0.432-0.432h-1.889v-0.66h-1.079l0.01-0.375h1.069v-0.608l2.912,0.024l-0.017,6.608
		C24.226,31.806,24.419,32,24.657,32h0.001c0.238,0,0.431-0.192,0.432-0.431l0.018-7.04C25.108,24.415,25.063,24.304,24.981,24.223z
		 M4.098,17.966c-0.09,0.214-0.336,0.315-0.55,0.225c-0.215-0.089-0.315-0.336-0.227-0.55c0.09-0.215,0.337-0.316,0.551-0.226
		C4.087,17.505,4.188,17.751,4.098,17.966z M12.725,28.177c-0.117,0.026-0.313,0.055-0.646,0.096l-0.03,0.003l-0.161,0.226
		l0.006,0.028c0.155,0.791,0.13,0.806,0.063,0.848l-0.515,0.318c-0.022,0.013-0.055,0.018-0.081,0.012
		c-0.023-0.005-0.096-0.022-0.657-0.446l-0.022-0.018l-0.282,0.046l-0.015,0.024c-0.458,0.661-0.489,0.654-0.563,0.637l-0.299-0.067
		l-0.299-0.068C9.15,29.8,9.12,29.793,8.99,29l-0.004-0.028l-0.234-0.163l-0.027,0.006c-0.689,0.142-0.761,0.125-0.785,0.12
		C7.913,28.93,7.886,28.91,7.871,28.89l-0.329-0.509c-0.042-0.066-0.058-0.09,0.422-0.738l0.017-0.022l-0.048-0.273l-0.025-0.015
		c-0.284-0.181-0.448-0.292-0.542-0.365l0.197-0.874c0.118-0.028,0.313-0.062,0.649-0.112l0.028-0.004L8.4,25.752l-0.006-0.029
		c-0.174-0.78-0.147-0.797-0.082-0.838l0.517-0.318c0.021-0.013,0.054-0.018,0.081-0.012c0.064,0.015,0.29,0.161,0.673,0.435
		l0.022,0.016l0.28-0.047l0.017-0.024c0.437-0.667,0.47-0.66,0.542-0.644l0.325,0.073l0.325,0.074
		c0.072,0.016,0.105,0.023,0.213,0.814l0.004,0.029l0.233,0.162l0.027-0.004c0.463-0.083,0.73-0.117,0.794-0.103
		c0.026,0.006,0.054,0.024,0.068,0.045l0.33,0.51c0.042,0.065,0.059,0.092-0.434,0.721l-0.018,0.023l0.048,0.273l0.023,0.016
		c0.282,0.189,0.444,0.304,0.538,0.38L12.725,28.177z M16.056,29.592c0,0.041,0,0.056-0.405,0.213l-0.014,0.005l-0.057,0.135
		l0.007,0.014c0.182,0.382,0.17,0.394,0.141,0.423l-0.23,0.225c-0.01,0.01-0.026,0.016-0.04,0.016c-0.035,0-0.169-0.049-0.398-0.146
		l-0.013-0.005l-0.14,0.057l-0.006,0.014c-0.148,0.396-0.165,0.396-0.206,0.396h-0.324c-0.04,0-0.056,0-0.216-0.395L14.15,30.53
		l-0.141-0.057l-0.014,0.006c-0.339,0.153-0.378,0.153-0.392,0.153s-0.03-0.006-0.04-0.016l-0.229-0.225
		c-0.029-0.029-0.04-0.04,0.132-0.43l0.007-0.014l-0.058-0.135l-0.014-0.005c-0.405-0.145-0.405-0.162-0.405-0.203v-0.318
		c0-0.041,0-0.056,0.404-0.212l0.014-0.005l0.057-0.135l-0.007-0.015c-0.181-0.382-0.169-0.394-0.14-0.423l0.23-0.225
		c0.009-0.009,0.025-0.016,0.04-0.016c0.034,0,0.169,0.049,0.398,0.146l0.014,0.005l0.139-0.057l0.006-0.014
		c0.147-0.396,0.166-0.396,0.205-0.396h0.325c0.039,0,0.056,0,0.215,0.395l0.006,0.014l0.14,0.056l0.014-0.006
		c0.34-0.154,0.379-0.154,0.392-0.154c0.014,0,0.03,0.007,0.04,0.016l0.229,0.224c0.028,0.028,0.041,0.04-0.132,0.43l-0.006,0.014
		l0.057,0.136l0.015,0.005c0.405,0.145,0.405,0.162,0.405,0.203V29.592z M17.252,25.902c0,0.048,0,0.066-0.482,0.254l-0.017,0.006
		l-0.067,0.161l0.008,0.017c0.216,0.456,0.202,0.47,0.168,0.504l-0.275,0.268c-0.011,0.012-0.031,0.019-0.048,0.019
		c-0.041,0-0.201-0.058-0.475-0.174l-0.016-0.006l-0.166,0.067l-0.007,0.017c-0.177,0.472-0.196,0.472-0.245,0.472h-0.387
		c-0.047,0-0.067,0-0.258-0.471L14.98,27.02l-0.167-0.067l-0.017,0.007c-0.404,0.183-0.451,0.183-0.466,0.183
		c-0.018,0-0.037-0.008-0.049-0.019l-0.273-0.268c-0.035-0.035-0.048-0.047,0.157-0.513l0.008-0.017l-0.068-0.161l-0.017-0.006
		c-0.483-0.173-0.483-0.193-0.483-0.242v-0.379c0-0.048,0-0.066,0.482-0.253l0.017-0.006l0.067-0.161l-0.008-0.017
		c-0.216-0.456-0.201-0.47-0.167-0.505l0.274-0.268c0.011-0.011,0.031-0.019,0.048-0.019c0.042,0,0.201,0.059,0.475,0.174
		l0.017,0.006l0.166-0.067l0.006-0.017c0.177-0.472,0.198-0.472,0.245-0.472h0.388c0.047,0,0.066,0,0.256,0.471l0.007,0.017
		l0.167,0.067l0.017-0.007c0.404-0.183,0.451-0.183,0.466-0.183c0.018,0,0.037,0.008,0.048,0.019l0.274,0.267
		c0.033,0.034,0.048,0.048-0.157,0.514l-0.008,0.017l0.068,0.162l0.017,0.006c0.483,0.172,0.483,0.193,0.483,0.241V25.902z"/>
</g>
<g>
</g>
<g>
</g>
<g>
</g>
<g>
</g>
<g>
</g>
<g>
</g>
<g>
</g>
<g>
</g>
<g>
</g>
<g>
</g>
<g>
</g>
<g>
</g>
<g>
</g>
<g>
</g>
<g>
</g>
</svg>
