<?xml version="1.0" encoding="UTF-8" standalone="no"?>
<!-- Generator: Adobe Illustrator 16.0.0, SVG Export Plug-In . SVG Version: 6.00 Build 0)  -->

<svg
   xmlns:dc="http://purl.org/dc/elements/1.1/"
   xmlns:cc="http://creativecommons.org/ns#"
   xmlns:rdf="http://www.w3.org/1999/02/22-rdf-syntax-ns#"
   xmlns:svg="http://www.w3.org/2000/svg"
   xmlns="http://www.w3.org/2000/svg"
   xmlns:sodipodi="http://sodipodi.sourceforge.net/DTD/sodipodi-0.dtd"
   xmlns:inkscape="http://www.inkscape.org/namespaces/inkscape"
   version="1.1"
   id="Layer_1"
   x="0px"
   y="0px"
   width="33"
   height="33"
   viewBox="0 0 33.000001 33.000001"
   xml:space="preserve"
   inkscape:version="0.48.5 r10040"
   sodipodi:docname="address.svg"><metadata
   id="metadata39"><rdf:RDF><cc:Work
       rdf:about=""><dc:format>image/svg+xml</dc:format><dc:type
         rdf:resource="http://purl.org/dc/dcmitype/StillImage" /></cc:Work></rdf:RDF></metadata><defs
   id="defs37" /><sodipodi:namedview
   pagecolor="#ffffff"
   bordercolor="#666666"
   borderopacity="1"
   objecttolerance="10"
   gridtolerance="10"
   guidetolerance="10"
   inkscape:pageopacity="0"
   inkscape:pageshadow="2"
   inkscape:window-width="640"
   inkscape:window-height="480"
   id="namedview35"
   showgrid="false"
   inkscape:zoom="7.3786895"
   inkscape:cx="13.8565"
   inkscape:cy="13.205805"
   inkscape:window-x="0"
   inkscape:window-y="0"
   inkscape:window-maximized="0"
   inkscape:current-layer="Layer_1" />

<g
   id="g5"
   transform="translate(0,1.0160006)">
</g>
<g
   id="g7"
   transform="translate(0,1.0160006)">
</g>
<g
   id="g9"
   transform="translate(0,1.0160006)">
</g>
<g
   id="g11"
   transform="translate(0,1.0160006)">
</g>
<g
   id="g13"
   transform="translate(0,1.0160006)">
</g>
<g
   id="g15"
   transform="translate(0,1.0160006)">
</g>
<g
   id="g17"
   transform="translate(0,1.0160006)">
</g>
<g
   id="g19"
   transform="translate(0,1.0160006)">
</g>
<g
   id="g21"
   transform="translate(0,1.0160006)">
</g>
<g
   id="g23"
   transform="translate(0,1.0160006)">
</g>
<g
   id="g25"
   transform="translate(0,1.0160006)">
</g>
<g
   id="g27"
   transform="translate(0,1.0160006)">
</g>
<g
   id="g29"
   transform="translate(0,1.0160006)">
</g>
<g
   id="g31"
   transform="translate(0,1.0160006)">
</g>
<g
   id="g33"
   transform="translate(0,1.0160006)">
</g>
<g
   id="g2989"
   transform="matrix(15.975797,0,0,11.943826,3.6343068,3.1419691)"><path
     id="path2991"
     d="M 1.0629921,0.17716536 C 0.9566929,0.07086614 0.81496062,0 0.63779527,0 0.46062992,0 0.31889763,0.07086614 0.17716535,0.17716536 0.07086614,0.28346457 0,0.42519686 0,0.56692915 c 0,0.10629921 0.03543307,0.2480315 0.14173228,0.49606295 0.10629921,0.2125985 0.21259843,0.3897638 0.31889764,0.6023623 0.10629921,0.1771653 0.17716535,0.2480315 0.17716535,0.2480315 0,-0.035433 0.0354331,-0.070866 0.0708661,-0.1062992 C 0.74409448,1.7716536 0.77952755,1.6653544 0.85039369,1.5236221 0.92125983,1.4173229 0.99212597,1.2755906 1.027559,1.1692914 1.0984252,1.0629921 1.1338583,0.95669293 1.2047244,0.85039372 c 0.035433,-0.14173229 0.070866,-0.21259843 0.070866,-0.28346457 0,-0.14173229 -0.070866,-0.28346458 -0.2125984,-0.38976379 z M 0.77952755,0.70866143 c -0.0354331,0.0354331 -0.10629921,0.0354331 -0.14173228,0.0354331 -0.0708661,0 -0.10629921,0 -0.14173228,-0.0354331 -0.0354331,-0.0354331 -0.0708661,-0.10629921 -0.0708661,-0.14173228 0,-0.0354331 0.0354331,-0.10629922 0.0708661,-0.10629922 0.0354331,-0.0354331 0.0708661,-0.0708661 0.14173228,-0.0708661 0.0354331,0 0.10629921,0.0354331 0.14173228,0.0708661 0.0354331,0 0.0354331,0.0708661 0.0354331,0.10629922 0,0.0354331 0,0.10629921 -0.0354331,0.14173228 z"
     style="fill:#000000;fill-opacity:1;fill-rule:nonzero;stroke:none"
     inkscape:connector-curvature="0" /></g></svg>