<?xml version="1.0" encoding="UTF-8" standalone="no"?>
<!-- Generator: Adobe Illustrator 16.0.4, SVG Export Plug-In . SVG Version: 6.00 Build 0)  -->

<svg
   xmlns:dc="http://purl.org/dc/elements/1.1/"
   xmlns:cc="http://creativecommons.org/ns#"
   xmlns:rdf="http://www.w3.org/1999/02/22-rdf-syntax-ns#"
   xmlns:svg="http://www.w3.org/2000/svg"
   xmlns="http://www.w3.org/2000/svg"
   xmlns:sodipodi="http://sodipodi.sourceforge.net/DTD/sodipodi-0.dtd"
   xmlns:inkscape="http://www.inkscape.org/namespaces/inkscape"
   version="1.1"
   id="Capa_1"
   x="0px"
   y="0px"
   width="2"
   height="1.9999999"
   viewBox="0 0 2 1.9999999"
   xml:space="preserve"
   inkscape:version="0.48.5 r10040"
   sodipodi:docname="mail.svg"><metadata
   id="metadata39"><rdf:RDF><cc:Work
       rdf:about=""><dc:format>image/svg+xml</dc:format><dc:type
         rdf:resource="http://purl.org/dc/dcmitype/StillImage" /></cc:Work></rdf:RDF></metadata><defs
   id="defs37" /><sodipodi:namedview
   pagecolor="#ffffff"
   bordercolor="#666666"
   borderopacity="1"
   objecttolerance="10"
   gridtolerance="10"
   guidetolerance="10"
   inkscape:pageopacity="0"
   inkscape:pageshadow="2"
   inkscape:window-width="1920"
   inkscape:window-height="1017"
   id="namedview35"
   showgrid="false"
   inkscape:zoom="11.504013"
   inkscape:cx="7.1357791"
   inkscape:cy="3.4092313"
   inkscape:window-x="-4"
   inkscape:window-y="-4"
   inkscape:window-maximized="1"
   inkscape:current-layer="Capa_1"
   fit-margin-top="0"
   fit-margin-left="0"
   fit-margin-right="0"
   fit-margin-bottom="0" />
<path
   style="fill:#010002"
   d="M 1.0001328,0 -6.2068966e-7,0.772094 V 2 H 1.9999995 V 0.772094 L 1.0001328,0 z M 0.72346618,0.550944 c 0.029333,-0.05542 0.069733,-0.0972 0.1210666,-0.124913 0.0512,-0.02799 0.1096,-0.04205 0.17560002,-0.04205 0.055733,0 0.1054666,0.01131 0.1489332,0.03364 0.043467,0.02261 0.076533,0.05446 0.0996,0.09582 0.0228,0.0415 0.0344,0.08672 0.0344,0.135668 0,0.05846 -0.017467,0.111264 -0.052267,0.158555 -0.043733,0.05956 -0.0996,0.08934 -0.1679999,0.08934 -0.0184,0 -0.032133,-0.0032 -0.0416,-0.0099 -0.0092,-0.0068 -0.0156,-0.01641 -0.018667,-0.02937 -0.025733,0.02633 -0.056133,0.03957 -0.090267,0.03957 -0.0368,0 -0.067333,-0.01323 -0.0916,-0.03929 -0.024267,-0.02633 -0.0364,-0.06135 -0.0364,-0.104784 0,-0.05419 0.014533,-0.10313 0.043867,-0.147526 0.0356,-0.05418 0.080933,-0.08134 0.1364,-0.08134 0.039467,0 0.068667,0.01558 0.087333,0.04688 l 0.0084,-0.03819 h 0.087867 l -0.050133,0.246519 c -0.0032,0.01572 -0.00467,0.02564 -0.00467,0.03019 0,0.0059 0.0012,0.0099 0.00373,0.01296 0.0024,0.0029 0.0056,0.0043 0.00907,0.0043 0.0108,0 0.024533,-0.0065 0.041333,-0.01999 0.022667,-0.01723 0.040933,-0.04095 0.0548,-0.07004 0.014,-0.02937 0.021067,-0.05984 0.021067,-0.09127 0,-0.05625 -0.0196,-0.103406 -0.059067,-0.141597 -0.039601,-0.03764 -0.094801,-0.0568 -0.1654677,-0.0568 -0.060133,0 -0.11106672,0.01268 -0.15280002,0.03819 -0.041733,0.02509 -0.0732,0.06094 -0.094667,0.10699 -0.021067,0.04577 -0.0316,0.09375 -0.0316,0.143527 0,0.04826 0.012,0.09238 0.035467,0.131946 0.023733,0.03985 0.0568,0.06866 0.099467,0.087 0.042667,0.01806 0.0916,0.02716 0.14653332,0.02716 0.0528,0 0.0984,-0.0076 0.1366666,-0.02289 0.038133,-0.0153 0.0688,-0.03791 0.092133,-0.06866 h 0.070667 c -0.022133,0.0466 -0.056133,0.083 -0.1018666,0.10961 -0.052667,0.03019 -0.1168001,0.04522 -0.1922667,0.04522 -0.073333,0 -0.13639992,-0.01268 -0.18959992,-0.03819 -0.053333,-0.02564 -0.0928,-0.06328 -0.1189334,-0.113056 -0.025867,-0.04991 -0.038667,-0.104233 -0.038667,-0.162967 0,-0.06439 0.014533,-0.124501 0.044134,-0.180202 z m -0.6529334,0.245554 0.7378667,0.51165 -0.7378667,0.590515 V 0.796498 z m 0.056,1.141597 L 1.0001328,1.239074 1.8734661,1.938095 H 0.12653278 z M 1.9294661,1.898665 1.1915994,1.30815 1.9294661,0.7965 V 1.898665 z M 1.0361328,0.607197 c 0.011733,0.01379 0.0176,0.03364 0.0176,0.05956 0,0.02316 -0.0044,0.04826 -0.012933,0.07487 -0.0084,0.02689 -0.018667,0.04743 -0.0304,0.06135 -0.008,0.0098 -0.016533,0.01696 -0.024933,0.02151 -0.011067,0.0065 -0.0228,0.0097 -0.035467,0.0097 -0.016933,1.37e-4 -0.030933,-0.0069 -0.042533,-0.02068 -0.011334,-0.01379 -0.016933,-0.03502 -0.016933,-0.06411 0,-0.02178 0.004,-0.04688 0.012267,-0.07514 0.00827,-0.02827 0.0204,-0.04977 0.036533,-0.06522 0.016267,-0.0153 0.033867,-0.02289 0.0528,-0.02289 0.017733,1.37e-4 0.032533,0.0072 0.044,0.02109 z"
   id="path3"
   inkscape:connector-curvature="0" />
<g
   id="g5"
   transform="translate(-1.4756531,-4.331449)">
</g>
<g
   id="g7"
   transform="translate(-1.4756531,-4.331449)">
</g>
<g
   id="g9"
   transform="translate(-1.4756531,-4.331449)">
</g>
<g
   id="g11"
   transform="translate(-1.4756531,-4.331449)">
</g>
<g
   id="g13"
   transform="translate(-1.4756531,-4.331449)">
</g>
<g
   id="g15"
   transform="translate(-1.4756531,-4.331449)">
</g>
<g
   id="g17"
   transform="translate(-1.4756531,-4.331449)">
</g>
<g
   id="g19"
   transform="translate(-1.4756531,-4.331449)">
</g>
<g
   id="g21"
   transform="translate(-1.4756531,-4.331449)">
</g>
<g
   id="g23"
   transform="translate(-1.4756531,-4.331449)">
</g>
<g
   id="g25"
   transform="translate(-1.4756531,-4.331449)">
</g>
<g
   id="g27"
   transform="translate(-1.4756531,-4.331449)">
</g>
<g
   id="g29"
   transform="translate(-1.4756531,-4.331449)">
</g>
<g
   id="g31"
   transform="translate(-1.4756531,-4.331449)">
</g>
<g
   id="g33"
   transform="translate(-1.4756531,-4.331449)">
</g>
</svg>