<?xml version="1.0" encoding="UTF-8" standalone="no"?>
<!-- Generator: Adobe Illustrator 16.0.4, SVG Export Plug-In . SVG Version: 6.00 Build 0)  -->

<svg
   xmlns:dc="http://purl.org/dc/elements/1.1/"
   xmlns:cc="http://creativecommons.org/ns#"
   xmlns:rdf="http://www.w3.org/1999/02/22-rdf-syntax-ns#"
   xmlns:svg="http://www.w3.org/2000/svg"
   xmlns="http://www.w3.org/2000/svg"
   xmlns:sodipodi="http://sodipodi.sourceforge.net/DTD/sodipodi-0.dtd"
   xmlns:inkscape="http://www.inkscape.org/namespaces/inkscape"
   version="1.1"
   id="Capa_1"
   x="0px"
   y="0px"
   width="36"
   height="29"
   viewBox="0 0 36 29"
   enable-background="new 0 0 612 792"
   xml:space="preserve"
   inkscape:version="0.48.5 r10040"
   sodipodi:docname="phone.svg"><metadata
   id="metadata9"><rdf:RDF><cc:Work
       rdf:about=""><dc:format>image/svg+xml</dc:format><dc:type
         rdf:resource="http://purl.org/dc/dcmitype/StillImage" /></cc:Work></rdf:RDF></metadata><defs
   id="defs7" /><sodipodi:namedview
   pagecolor="#ffffff"
   bordercolor="#666666"
   borderopacity="1"
   objecttolerance="10"
   gridtolerance="10"
   guidetolerance="10"
   inkscape:pageopacity="0"
   inkscape:pageshadow="2"
   inkscape:window-width="1920"
   inkscape:window-height="1017"
   id="namedview5"
   showgrid="false"
   inkscape:zoom="13.485026"
   inkscape:cx="24.727233"
   inkscape:cy="34.229739"
   inkscape:window-x="-4"
   inkscape:window-y="-4"
   inkscape:window-maximized="1"
   inkscape:current-layer="Capa_1"
   fit-margin-top="0"
   fit-margin-left="0"
   fit-margin-right="0"
   fit-margin-bottom="0" />
<path
   d="m 24.373092,19.513322 c 0.05093,0.390489 -0.06799,0.730048 -0.356537,1.018673 l -3.387086,3.361538 c -0.152802,0.169779 -0.352292,0.314175 -0.598471,0.432937 -0.24618,0.118846 -0.488074,0.195245 -0.725721,0.229201 -0.01697,0 -0.068,0.0043 -0.152886,0.01282 -0.08481,0.0085 -0.195161,0.01273 -0.330986,0.01273 -0.32262,0 -0.844733,-0.05518 -1.566293,-0.165534 C 16.53355,24.305332 15.6507,24.033602 14.606643,23.600749 13.56242,23.167813 12.37821,22.518325 11.053976,21.652535 9.7297426,20.786742 8.3205356,19.598207 6.8264816,18.087173 5.6380286,16.915698 4.6533116,15.795158 3.8723286,14.72555 3.0913446,13.655944 2.4631636,12.666982 1.9877826,11.758664 1.5123596,10.850346 1.1558236,10.026918 0.91813363,9.2883809 c -0.237691,-0.738538 -0.398981,-1.375209 -0.48387,-1.910013 -0.08489,-0.534804 -0.118846,-0.955006 -0.101868,-1.260609 0.01698,-0.305601 0.02547,-0.47538 0.02547,-0.509337 0.03396,-0.23769 0.110356,-0.479625 0.229201,-0.725804 0.118845,-0.246179 0.263157,-0.445669 0.43293597,-0.59847 l 3.387088,-3.38709097 c 0.237691,-0.237689 0.509338,-0.356535 0.814939,-0.356535 0.220713,0 0.415959,0.06367 0.585738,0.191001 0.169778,0.127335 0.314091,0.28437997 0.432936,0.47113697 l 2.724952,5.169767 c 0.152801,0.271647 0.195246,0.56876 0.127334,0.891341 -0.06791,0.32258 -0.212224,0.594225 -0.432936,0.814938 l -1.247875,1.247874 c -0.03396,0.03396 -0.06367,0.08914 -0.08913,0.165536 -0.02547,0.0764 -0.0382,0.140067 -0.0382,0.191002 0.06791,0.3565351 0.220712,0.7640041 0.458402,1.2224071 0.203735,0.407469 0.517826,0.904074 0.942273,1.48981 0.424448,0.585737 1.027163,1.260609 1.8081454,2.024571 0.764006,0.781025 1.443121,1.387944 2.037349,1.820922 0.594143,0.432852 1.090829,0.751272 1.489809,0.955006 0.398981,0.203733 0.704583,0.326825 0.916807,0.369185 l 0.318252,0.06367 c 0.03396,0 0.08922,-0.01273 0.165575,-0.0382 0.07636,-0.02547 0.13158,-0.05518 0.165534,-0.08914 l 1.451612,-1.477075 c 0.305686,-0.271647 0.662138,-0.40747 1.069607,-0.40747 0.288707,0 0.517826,0.05093 0.687606,0.152802 h 0.02547 l 4.915016,2.903219 c 0.356658,0.220794 0.56888,0.500931 0.636793,0.840489 z"
   id="path3"
   inkscape:connector-curvature="0" />
</svg>