<?xml version="1.0" encoding="iso-8859-1"?>
<!-- Generator: Adobe Illustrator 17.1.0, SVG Export Plug-In . SVG Version: 6.00 Build 0)  -->
<!DOCTYPE svg PUBLIC "-//W3C//DTD SVG 1.1//EN" "http://www.w3.org/Graphics/SVG/1.1/DTD/svg11.dtd">
<svg version="1.1" id="Layer_1" xmlns="http://www.w3.org/2000/svg" xmlns:xlink="http://www.w3.org/1999/xlink" x="0px" y="0px"
	 viewBox="0 0 64 64" style="enable-background:new 0 0 64 64;" xml:space="preserve">
<g>
	<rect x="33" y="35" width="6" height="12"/>
	<rect x="33" y="29" width="6" height="1"/>
	<polygon points="42,28 44,28 44,19 42,19 42,17 33,17 33,19 33,21 42,21 42,23 33,23 33,24 42,24 42,26 33,26 33,27 42,27 	"/>
	<rect x="33" y="32" width="6" height="1"/>
	<path d="M6.72,57.068c0.274-2.249,2.406-3.458,4.255-3.458c1.949,0,3.611,1.183,4.298,2.886c0.613-1.426,0.968-4.932,4.727-5.774
		v6.655c1.422,0.722,2.495,2.017,2.87,3.622c0.075,0.322,0.123,0.657,0.14,1H26v-1v-7.455v-0.902v-0.89V51h-0.713h-0.849h-0.828H22
		v-0.439v-0.405v-0.511V49h4v-1h-4v-2h8v1h2V35v-2v-1v-2v-1v-2v-1v-2v-1v-2v-7h-2v-2h-2v-2h-1V4h-2v6h-1v2h-2v2h-2v35.791
		c-3.163,0.605-4.382,2.801-5.02,4.533c-1.036-1.051-2.463-1.67-4.005-1.67c-2.547,0-5.294,1.892-5.307,4.95
		c0.167-0.111,0.341-0.212,0.522-0.303C6.361,57.214,6.539,57.137,6.72,57.068z M22,16h8v2h-8V16z M22,19h8v2h-8V19z M22,22h8v2h-8
		V22z M22,25h8v2h-8V25z M22,28h8v2h-8V28z M22,31h8v2h-8V31z M22,34h8v2h-8V34z M22,37h8v2h-8V37z M22,40h8v2h-8V40z M22,43h8v2h-8
		V43z"/>
	<path d="M42,29h-2v1v2v1v2v12h4h1h2h1h1v5v10h3V52V29h-8H42z M42,31h2v2h-2v-1V31z M42,37h2v2h-2V37z M47,39h-2v-2h2V39z M42,40h2
		v2h-2V40z M45,40h2v2h-2V40z M48,40h2v2h-2V40z M48,39v-2h2v2H48z M48,36v-2h2v2H48z M47,36h-2v-2h2V36z M42,34h2v2h-2v-1V34z
		 M42,45v-2h2v2H42z M45,45v-2h2v2H45z M48,45v-2h2v2H48z M50,33h-2v-2h2V33z M47,33h-2v-2h2V33z"/>
	<path d="M22.017,62c-0.017-0.33-0.102-0.666-0.215-1c-0.31-0.917-0.946-1.805-1.803-2.427c-0.723-0.525-1.592-0.863-2.532-0.863
		c-1.882,0-3.496,1.227-4.196,2.853c-0.687-1.703-2.349-2.908-4.298-2.908c-0.768,0-1.586,0.162-2.303,0.504
		c-0.173,0.083-0.339,0.178-0.498,0.282c-0.178,0.117-0.339,0.254-0.493,0.4c-0.605,0.572-1.014,1.357-1.014,2.414
		C4.666,61.54,4.7,62,4.75,62h1.166h0.417H6.75H20H22.017z"/>
	<polygon points="40,48 39,48 33,48 32,48 30,48 27,48 27,49 27,51 27,53.232 27,54.465 27,55.835 27,61 27,62 28.042,62 28.563,62 
		29,62 29,60.416 29,53 29,52 32,52 33,52 39,52 40,52 44,52 46,52 46,62 48,62 48,52 48,48 44,48 	"/>
	<polygon points="44,62 45,62 45,53 44,53 40,53 33,53 32,53 30,53 30,62 32,62 32,57 33,57 37,57 37,62 38,62 38,57 40,57 43,57 
		43,62 	"/>
</g>
</svg>
