<?xml version="1.0" encoding="UTF-8" standalone="no"?>
<!-- Generator: Adobe Illustrator 16.2.1, SVG Export Plug-In . SVG Version: 6.00 Build 0)  -->

<svg
   xmlns:dc="http://purl.org/dc/elements/1.1/"
   xmlns:cc="http://creativecommons.org/ns#"
   xmlns:rdf="http://www.w3.org/1999/02/22-rdf-syntax-ns#"
   xmlns:svg="http://www.w3.org/2000/svg"
   xmlns="http://www.w3.org/2000/svg"
   xmlns:sodipodi="http://sodipodi.sourceforge.net/DTD/sodipodi-0.dtd"
   xmlns:inkscape="http://www.inkscape.org/namespaces/inkscape"
   version="1.2"
   id="Layer_1"
   x="0px"
   y="0px"
   width="18.000999"
   height="14.601"
   viewBox="0 0 18.000999 14.601"
   xml:space="preserve"
   inkscape:version="0.48.5 r10040"
   sodipodi:docname="twitter.svg"><metadata
   id="metadata11"><rdf:RDF><cc:Work
       rdf:about=""><dc:format>image/svg+xml</dc:format><dc:type
         rdf:resource="http://purl.org/dc/dcmitype/StillImage" /></cc:Work></rdf:RDF></metadata><defs
   id="defs9" /><sodipodi:namedview
   pagecolor="#ffffff"
   bordercolor="#666666"
   borderopacity="1"
   objecttolerance="10"
   gridtolerance="10"
   guidetolerance="10"
   inkscape:pageopacity="0"
   inkscape:pageshadow="2"
   inkscape:window-width="640"
   inkscape:window-height="480"
   id="namedview7"
   showgrid="false"
   fit-margin-top="0"
   fit-margin-left="0"
   fit-margin-right="0"
   fit-margin-bottom="0"
   inkscape:zoom="9.8333333"
   inkscape:cx="10"
   inkscape:cy="10"
   inkscape:window-x="0"
   inkscape:window-y="0"
   inkscape:window-maximized="0"
   inkscape:current-layer="Layer_1" />
<g
   id="g3"
   transform="translate(-2.999,-4.699)">
	<path
   d="m 18.89,7.012 c 0.808,-0.496 1.343,-1.173 1.605,-2.034 -0.786,0.417 -1.569,0.703 -2.351,0.861 -0.703,-0.756 -1.593,-1.14 -2.66,-1.14 -1.043,0 -1.924,0.366 -2.643,1.078 -0.715,0.717 -1.076,1.588 -1.076,2.605 0,0.309 0.039,0.585 0.117,0.819 C 8.806,9.096 6.26,7.82 4.254,5.364 3.914,5.965 3.744,6.577 3.744,7.21 c 0,1.301 0.549,2.332 1.645,3.089 -0.625,-0.053 -1.176,-0.211 -1.645,-0.47 0,0.929 0.273,1.705 0.82,2.388 0.549,0.676 1.254,1.107 2.115,1.291 -0.312,0.08 -0.641,0.118 -0.979,0.118 -0.312,0 -0.533,-0.026 -0.664,-0.083 0.23,0.757 0.664,1.371 1.291,1.841 0.625,0.472 1.344,0.721 2.152,0.743 -1.332,1.045 -2.855,1.562 -4.578,1.562 -0.422,0 -0.721,-0.006 -0.902,-0.038 1.697,1.102 3.586,1.649 5.676,1.649 2.139,0 4.029,-0.542 5.674,-1.626 1.645,-1.078 2.859,-2.408 3.639,-3.974 0.784,-1.564 1.172,-3.192 1.172,-4.892 V 8.34 C 19.918,7.77 20.531,7.128 21,6.419 20.32,6.712 19.617,6.911 18.89,7.012 z"
   id="path5"
   inkscape:connector-curvature="0" />
</g>
</svg>