<?xml version="1.0" encoding="UTF-8" standalone="no"?>
<!-- Generator: Adobe Illustrator 16.0.4, SVG Export Plug-In . SVG Version: 6.00 Build 0)  -->

<svg
   xmlns:dc="http://purl.org/dc/elements/1.1/"
   xmlns:cc="http://creativecommons.org/ns#"
   xmlns:rdf="http://www.w3.org/1999/02/22-rdf-syntax-ns#"
   xmlns:svg="http://www.w3.org/2000/svg"
   xmlns="http://www.w3.org/2000/svg"
   xmlns:sodipodi="http://sodipodi.sourceforge.net/DTD/sodipodi-0.dtd"
   xmlns:inkscape="http://www.inkscape.org/namespaces/inkscape"
   version="1.1"
   id="Capa_1"
   x="0px"
   y="0px"
   width="33.150002"
   height="23.209999"
   viewBox="0 0 33.15 23.209999"
   enable-background="new 0 0 84.15 58.695"
   xml:space="preserve"
   inkscape:version="0.48.4 r9939"
   sodipodi:docname="patro.svg"><metadata
   id="metadata17"><rdf:RDF><cc:Work
       rdf:about=""><dc:format>image/svg+xml</dc:format><dc:type
         rdf:resource="http://purl.org/dc/dcmitype/StillImage" /><dc:title></dc:title></cc:Work></rdf:RDF></metadata><defs
   id="defs15" /><sodipodi:namedview
   pagecolor="#ffffff"
   bordercolor="#666666"
   borderopacity="1"
   objecttolerance="10"
   gridtolerance="10"
   guidetolerance="10"
   inkscape:pageopacity="0"
   inkscape:pageshadow="2"
   inkscape:window-width="1920"
   inkscape:window-height="1017"
   id="namedview13"
   showgrid="false"
   inkscape:zoom="21.108166"
   inkscape:cx="11.610151"
   inkscape:cy="16.592224"
   inkscape:window-x="-4"
   inkscape:window-y="-4"
   inkscape:window-maximized="1"
   inkscape:current-layer="Capa_1" />

<g
   id="g3"
   transform="matrix(1.0159898,0,0,1.0583608,4.69608,0.01646063)"><path
     d="m 17.032,9.126 v 2.076 H 14.741 V 9.126 H 11.885 V 4.767 h 2.856 V 0 H 8.47 v 4.767 h 2.661 V 9.126 H 8.47 v 2.076 H 6.273 V 9.126 H 0 v 4.769 H 6.272 V 11.956 H 8.47 v 1.939 h 2.661 v 3.323 H 8.47 v 4.767 h 6.271 v -4.767 h -2.856 v -3.323 h 2.856 v -1.939 h 2.291 v 1.939 h 6.271 V 9.126 H 17.032 z M 9.882,1.19 c 0.772,0 2.675,0 3.446,0 0,0.65 0,1.637 0,2.287 -0.771,0 -2.674,0 -3.446,0 0,-0.651 0,-1.637 0,-2.287 z M 4.86,12.602 c -0.771,0 -2.674,0 -3.446,0 0,-0.649 0,-1.635 0,-2.285 0.773,0 2.675,0 3.446,0 0,0.651 0,1.636 0,2.285 z m 8.468,5.806 c 0,0.65 0,1.636 0,2.285 -0.771,0 -2.674,0 -3.446,0 0,-0.649 0,-1.635 0,-2.285 0.773,0 2.675,0 3.446,0 z m 0,-5.806 c -0.771,0 -2.674,0 -3.446,0 0,-0.649 0,-1.635 0,-2.285 0.772,0 2.675,0 3.446,0 0,0.651 0,1.636 0,2.285 z m 8.563,0 c -0.773,0 -2.674,0 -3.448,0 0,-0.649 0,-1.635 0,-2.285 0.775,0 2.675,0 3.448,0 0,0.651 0,1.636 0,2.285 z"
     id="path5"
     inkscape:connector-curvature="0" /></g></svg>