<?xml version="1.0" encoding="UTF-8" standalone="no"?>
<!-- Generator: Adobe Illustrator 16.0.0, SVG Export Plug-In . SVG Version: 6.00 Build 0)  -->

<svg
   xmlns:dc="http://purl.org/dc/elements/1.1/"
   xmlns:cc="http://creativecommons.org/ns#"
   xmlns:rdf="http://www.w3.org/1999/02/22-rdf-syntax-ns#"
   xmlns:svg="http://www.w3.org/2000/svg"
   xmlns="http://www.w3.org/2000/svg"
   xmlns:sodipodi="http://sodipodi.sourceforge.net/DTD/sodipodi-0.dtd"
   xmlns:inkscape="http://www.inkscape.org/namespaces/inkscape"
   version="1.1"
   id="Layer_1"
   x="0px"
   y="0px"
   width="45"
   height="30"
   viewBox="0 0 45 30"
   enable-background="new 0 0 512 512"
   xml:space="preserve"
   inkscape:version="0.48.5 r10040"
   sodipodi:docname="buildings.svg"><metadata
   id="metadata9"><rdf:RDF><cc:Work
       rdf:about=""><dc:format>image/svg+xml</dc:format><dc:type
         rdf:resource="http://purl.org/dc/dcmitype/StillImage" /></cc:Work></rdf:RDF></metadata><defs
   id="defs7" /><sodipodi:namedview
   pagecolor="#ffffff"
   bordercolor="#666666"
   borderopacity="1"
   objecttolerance="10"
   gridtolerance="10"
   guidetolerance="10"
   inkscape:pageopacity="0"
   inkscape:pageshadow="2"
   inkscape:window-width="640"
   inkscape:window-height="480"
   id="namedview5"
   showgrid="false"
   inkscape:zoom="0.4609375"
   inkscape:cx="256"
   inkscape:cy="256"
   inkscape:window-x="0"
   inkscape:window-y="0"
   inkscape:window-maximized="0"
   inkscape:current-layer="Layer_1" />
<path
   d="M 477.83051,-4.711864 V -317.11864 H 238.64407 V -525.38983 H -0.54237288 V -4.711864 H -34.711864 V 30 H 512 V -4.711864 H 477.83051 z M 33.627119,-490.67797 H 101.9661 v 69.42373 H 33.627119 v -69.42373 z m 0,104.1356 H 101.9661 v 69.42373 H 33.627119 v -69.42373 z m 0,104.13559 H 101.9661 v 69.42373 H 33.627119 v -69.42373 z m 0,104.13559 H 101.9661 v 69.42373 H 33.627119 v -69.42373 z M 170.30508,-4.711864 H 67.79661 v -69.423729 h 102.50847 v 69.423729 z m 34.1695,-104.135596 h -68.33899 v -69.42373 h 68.33899 v 69.42373 z m 0,-104.13559 h -68.33899 v -69.42373 h 68.33899 v 69.42373 z m 0,-104.13559 h -68.33899 v -69.42373 h 68.33899 v 69.42373 z m 0,-104.1356 h -68.33899 v -69.42373 h 68.33899 v 69.42373 z m 68.33898,138.84746 h 68.33898 v 69.42373 h -68.33898 v -69.42373 z m 0,104.13559 h 68.33898 v 69.42373 h -68.33898 v -69.42373 z M 409.49153,-4.711864 H 306.98305 v -69.423729 h 102.50848 v 69.423729 z m 34.16949,-104.135596 h -68.33899 v -69.42373 h 68.33899 v 69.42373 z m 0,-104.13559 h -68.33899 v -69.42373 h 68.33899 v 69.42373 z"
   id="path3"
   inkscape:connector-curvature="0" />
</svg>