<?xml version="1.0" encoding="UTF-8" standalone="no"?>
<!-- Generator: Adobe Illustrator 16.0.0, SVG Export Plug-In . SVG Version: 6.00 Build 0)  -->

<svg
   xmlns:dc="http://purl.org/dc/elements/1.1/"
   xmlns:cc="http://creativecommons.org/ns#"
   xmlns:rdf="http://www.w3.org/1999/02/22-rdf-syntax-ns#"
   xmlns:svg="http://www.w3.org/2000/svg"
   xmlns="http://www.w3.org/2000/svg"
   xmlns:sodipodi="http://sodipodi.sourceforge.net/DTD/sodipodi-0.dtd"
   xmlns:inkscape="http://www.inkscape.org/namespaces/inkscape"
   version="1.1"
   id="Layer_1"
   x="0px"
   y="0px"
   width="33"
   height="23"
   viewBox="0 0 33.000001 23.000001"
   xml:space="preserve"
   inkscape:version="0.48.5 r10040"
   sodipodi:docname="city.svg"><metadata
   id="metadata39"><rdf:RDF><cc:Work
       rdf:about=""><dc:format>image/svg+xml</dc:format><dc:type
         rdf:resource="http://purl.org/dc/dcmitype/StillImage" /></cc:Work></rdf:RDF></metadata><defs
   id="defs37" /><sodipodi:namedview
   pagecolor="#ffffff"
   bordercolor="#666666"
   borderopacity="1"
   objecttolerance="10"
   gridtolerance="10"
   guidetolerance="10"
   inkscape:pageopacity="0"
   inkscape:pageshadow="2"
   inkscape:window-width="640"
   inkscape:window-height="480"
   id="namedview35"
   showgrid="false"
   inkscape:zoom="7.3786895"
   inkscape:cx="13.8565"
   inkscape:cy="15.992"
   inkscape:window-x="0"
   inkscape:window-y="0"
   inkscape:window-maximized="0"
   inkscape:current-layer="Layer_1" />
<path
   d="m 23.813,6.1070005 v -10.899 l -2.797,-0.884 v -1.067 l -6.725,-2.241 -5.594,1.587 v 0.965 l -2.686,0.727 v 10.168 L 0,5.2830005 V 21.975 L 8.456,23 8.474,22.974 9.969,22.793 v -4.724 l 2.363,-0.139 v 4.577 l 1.608,-0.202 v -4.483 l 2.115,-0.123 v 4.345 l 1.03,-0.109 -0.012,-8.249 h 4.011 v 7.495 l 1.471,-0.18 v -3.822 l 1.622,-0.091 v 3.716 l 1.114,-0.137 v -3.652 l 1.479,-0.083 v 3.555 l 0.942,-0.115 V 6.6130005 l -3.899,-0.506 z M 1.849,16.575 0.62,16.524 v -1.096 l 1.229,0.03 v 1.117 z m 0,-1.932 -1.229,-0.015 v -1.097 l 1.229,-0.005 v 1.117 z M 1.859,12.75 0.63,12.77 v -1.097 l 1.229,-0.039 v 1.116 z m 0,-1.869 -1.229,0.054 V 9.8380005 l 1.229,-0.073 V 10.881 z m 0,-1.9639995 -1.229,0.09 v -1.097 l 1.229,-0.109 v 1.116 z M 3.806,16.623 2.506,16.57 v -1.127 l 1.3,0.031 v 1.149 z m 0,-1.987 -1.3,-0.016 v -1.127 l 1.3,-0.006 v 1.149 z m 0.011,-1.948 -1.301,0.021 v -1.128 l 1.301,-0.042 v 1.149 z m 0,-1.924 -1.301,0.058 V 9.6950005 l 1.301,-0.079 V 10.764 z m 0,-2.0199995 -1.301,0.096 v -1.128 l 1.301,-0.116 v 1.148 z M 5.784,16.715 4.409,16.659 V 15.5 l 1.375,0.033 v 1.182 z m 0,-2.044 -1.375,-0.018 v -1.158 l 1.375,-0.006 v 1.182 z M 5.796,12.667 4.421,12.688 V 11.53 l 1.375,-0.045 v 1.182 z m 0,-1.978 -1.375,0.06 V 9.5910005 l 1.375,-0.083 V 10.689 z m 0,-2.0789995 -1.375,0.101 v -1.159 l 1.375,-0.123 v 1.181 z m 1.312,-12.888 1.57,-0.388 v 2.407 l -1.57,0.337 v -2.356 z m -10e-4,3.77899998 1.57,-0.307 V 1.6010005 l -1.57,0.256 V -0.49899952 z M 7.917,16.808 6.46,16.748 v -1.192 l 1.457,0.035 v 1.217 z m 0,-2.105 -1.457,-0.018 v -1.193 l 1.457,-0.006 v 1.217 z m 0.014,-2.065 -1.458,0.023 v -1.192 l 1.458,-0.048 v 1.217 z m 0,-2.037 -1.458,0.063 V 9.4710005 l 1.458,-0.088 V 10.601 z m 0,-2.1409995 -1.458,0.106 v -1.192 l 1.458,-0.131 v 1.217 z m 0.758,-4.237 -0.373,-0.048 -1.197,0.149 v -0.967 l 1.57,-0.224 v 1.09 z M 13.344,10.806 V 9.6030005 l 1.286,0.078 V 10.862 l -1.286,-0.056 z m 1.263,0.775 v 1.181 l -1.287,-0.02 v -1.203 l 1.287,0.042 z m 0.012,-3.8299995 v 1.181 l -1.287,-0.093 v -1.202 l 1.287,0.114 z m -1.005,-2.905 -1.783,-0.226 v -1.906 l 1.783,-0.253 v 2.385 z m -1.795,-10.262 1.782,-0.439 v 2.566 l -1.782,0.382 v -2.509 z m -0.001,4.024 1.782,-0.347 V 0.82700048 L 11.818,1.1160005 v -2.508 z m -2.357,-3.462 1.675,-0.414 v 2.487 l -1.675,0.36 v -2.433 z m 0,3.90099998 1.675,-0.32699998 v 2.487 l -1.675,0.272 v -2.43200002 z m -0.256,8.20200002 1.443,0.129 v 1.25 l -1.443,-0.104 v -1.275 z m 0.039,2.113 1.441,0.087 V 10.698 L 9.244,10.635 V 9.3620005 z M 10.698,11.395 v 1.249 L 9.257,12.621 v -1.273 l 1.441,0.047 z m -1.441,2.084 1.441,0.007 v 1.249 l -1.441,0.019 v -1.275 z m 1.471,3.301 -1.44,0.06 v -1.274 l 1.44,-0.034 v 1.248 z m 0.419,-12.2459995 -1.675,-0.212 v -1.294 l 1.675,-0.238 v 1.744 z m 0.25,2.927 1.359,0.121 v 1.213 l -1.359,-0.098 v -1.236 z m 0.012,2.022 1.359,0.083 V 10.778 L 11.409,10.719 V 9.4830005 z M 12.78,11.48 v 1.213 l -1.358,-0.022 v -1.235 l 1.358,0.044 z m -1.358,2.024 1.358,0.006 v 1.213 l -1.358,0.018 v -1.237 z m 1.374,3.185 -1.357,0.057 V 15.51 l 1.357,-0.032 v 1.211 z m 0.523,-3.135 1.288,0.005 v 1.181 l -1.288,0.018 v -1.204 z m 1.319,3.074 -1.285,0.053 v -1.202 l 1.285,-0.031 v 1.18 z m 0.475,-22.4689995 1.728,0.503 v 2.426 l -1.728,-0.45 v -2.479 z m 0.058,4.217 1.725,0.395 v 2.423 L 15.171,0.85300048 V -1.6239995 z m 1.277,10.676 -1.218,-0.088 v -1.17 l 1.218,0.108 v 1.15 z m 0.011,0.729 V 10.929 L 15.242,10.876 V 9.7070005 l 1.217,0.074 z M 16.438,11.63 v 1.148 L 15.22,12.759 v -1.17 l 1.218,0.041 z m 0,1.924 v 1.148 l -1.219,0.017 v -1.17 l 1.219,0.005 z m 0.024,3.024 -1.218,0.051 V 15.46 l 1.218,-0.03 v 1.148 z m 0.447,-11.3379995 -1.724,-0.235 v -2.476 l 1.724,0.287 v 2.424 z m 9.249,3.483 0.856,0.077 v 0.964 l -0.856,-0.063 v -0.978 z M 27.021,10.376 v 0.965 l -0.855,-0.038 v -0.979 l 0.855,0.052 z m -0.871,1.525 0.856,0.028 v 0.965 L 26.15,12.88 v -0.979 z m -1.316,-3.2879995 0.896,0.081 v 0.986 l -0.896,-0.064 v -1.003 z M 25.737,10.307 v 0.986 l -0.896,-0.039 v -1.002 l 0.896,0.055 z m -0.912,1.559 0.896,0.03 v 0.986 l -0.896,-0.014 v -1.002 z m -5.013,-16.3489995 1.497,0.436 v 2.261 l -1.497,-0.392 v -2.305 z m 1.543,4.26399998 V 2.0400005 l -1.494,-0.297 v -2.30400002 l 1.494,0.342 z M 19.237,3.2110005 v 2.337 l -1.603,-0.219 v -2.386 l 1.603,0.268 z m -0.012,-1.564 -1.604,-0.317 v -2.387 l 1.604,0.36699998 V 1.6470005 z m -1.657,-6.767 1.605,0.467 v 2.339 l -1.605,-0.418 v -2.388 z M 21.124,12.832 17.086,12.797 v -1.135 l 4.038,0.102 v 1.068 z m 0.037,-1.68 -4.086,-0.204 V 9.8140005 L 21.161,10.084 v 1.068 z m 0.019,-1.7879995 -4.104,-0.267 v -1.134 l 4.104,0.332 v 1.069 z m 0.187,-3.555 -1.494,-0.205 v -2.303 l 1.494,0.249 v 2.259 z m 0.595,-9.658 1.396,0.407 v 2.184 l -1.396,-0.364 v -2.227 z m 1.44,4.10599998 V 2.4400005 l -1.395,-0.277 v -2.22500002 l 1.395,0.319 z m -1.406,8.08500002 0.986,0.089 v 1.035 l -0.986,-0.072 v -1.052 z m 0.026,1.7419995 0.985,0.061 v 1.033 l -0.985,-0.043 v -1.051 z m 0.995,1.672 v 1.033 l -0.985,-0.017 v -1.051 l 0.985,0.035 z m -0.986,1.726 0.984,0.006 v 1.033 l -0.984,0.013 v -1.052 z m 1.005,2.733 -0.984,0.039 v -1.051 l 0.984,-0.022 v 1.034 z m 0.377,-10.1329995 -1.394,-0.191 v -2.224 l 1.394,0.232 v 2.183 z m 0.083,2.409 0.938,0.084 v 1.01 l -0.938,-0.069 v -1.025 z m 0.009,1.6759995 0.938,0.058 v 1.009 l -0.938,-0.041 v -1.026 z m 0.946,1.651 v 1.01 l -0.938,-0.017 v -1.025 l 0.938,0.032 z m -0.937,1.685 0.938,0.005 v 1.009 l -0.938,0.011 v -1.025 z m 0.948,2.65 -0.938,0.038 v -1.025 l 0.938,-0.022 v 1.009 z m 0.362,-2.609 0.897,0.004 v 0.987 l -0.897,0.012 v -1.003 z m 0.919,2.57 -0.896,0.036 v -1.002 l 0.896,-0.021 v 0.987 z m 0.406,-2.574 0.856,0.004 v 0.965 l -0.856,0.011 v -0.98 z m 0.874,2.543 -0.855,0.035 v -0.979 l 0.855,-0.02 v 0.964 z"
   id="path3"
   inkscape:connector-curvature="0" />
<g
   id="g5"
   transform="translate(0,-8.9839995)">
</g>
<g
   id="g7"
   transform="translate(0,-8.9839995)">
</g>
<g
   id="g9"
   transform="translate(0,-8.9839995)">
</g>
<g
   id="g11"
   transform="translate(0,-8.9839995)">
</g>
<g
   id="g13"
   transform="translate(0,-8.9839995)">
</g>
<g
   id="g15"
   transform="translate(0,-8.9839995)">
</g>
<g
   id="g17"
   transform="translate(0,-8.9839995)">
</g>
<g
   id="g19"
   transform="translate(0,-8.9839995)">
</g>
<g
   id="g21"
   transform="translate(0,-8.9839995)">
</g>
<g
   id="g23"
   transform="translate(0,-8.9839995)">
</g>
<g
   id="g25"
   transform="translate(0,-8.9839995)">
</g>
<g
   id="g27"
   transform="translate(0,-8.9839995)">
</g>
<g
   id="g29"
   transform="translate(0,-8.9839995)">
</g>
<g
   id="g31"
   transform="translate(0,-8.9839995)">
</g>
<g
   id="g33"
   transform="translate(0,-8.9839995)">
</g>
</svg>