<?xml version="1.0" encoding="UTF-8" standalone="no"?>
<!-- Generator: Adobe Illustrator 16.0.4, SVG Export Plug-In . SVG Version: 6.00 Build 0)  -->

<svg
   xmlns:dc="http://purl.org/dc/elements/1.1/"
   xmlns:cc="http://creativecommons.org/ns#"
   xmlns:rdf="http://www.w3.org/1999/02/22-rdf-syntax-ns#"
   xmlns:svg="http://www.w3.org/2000/svg"
   xmlns="http://www.w3.org/2000/svg"
   xmlns:sodipodi="http://sodipodi.sourceforge.net/DTD/sodipodi-0.dtd"
   xmlns:inkscape="http://www.inkscape.org/namespaces/inkscape"
   version="1.1"
   id="Capa_1"
   x="0px"
   y="0px"
   width="33.150002"
   height="23.209999"
   viewBox="0 0 33.15 23.209999"
   enable-background="new 0 0 84.15 58.695"
   xml:space="preserve"
   inkscape:version="0.48.4 r9939"
   sodipodi:docname="company.svg"><metadata
   id="metadata17"><rdf:RDF><cc:Work
       rdf:about=""><dc:format>image/svg+xml</dc:format><dc:type
         rdf:resource="http://purl.org/dc/dcmitype/StillImage" /></cc:Work></rdf:RDF></metadata><defs
   id="defs15" /><sodipodi:namedview
   pagecolor="#ffffff"
   bordercolor="#666666"
   borderopacity="1"
   objecttolerance="10"
   gridtolerance="10"
   guidetolerance="10"
   inkscape:pageopacity="0"
   inkscape:pageshadow="2"
   inkscape:window-width="1920"
   inkscape:window-height="1017"
   id="namedview13"
   showgrid="false"
   inkscape:zoom="21.108166"
   inkscape:cx="11.610151"
   inkscape:cy="16.592224"
   inkscape:window-x="-4"
   inkscape:window-y="-4"
   inkscape:window-maximized="1"
   inkscape:current-layer="Capa_1" />
<g
   id="g3"
   transform="matrix(0.39493321,0,0,0.39493321,0,0.02944301)">
	<path
   d="m 42.063,20.3 c 5.29,0 9.575,-4.283 9.575,-9.556 0,-5.29 -4.292,-9.566 -9.575,-9.566 -5.271,0 -9.554,4.276 -9.554,9.566 0,5.275 4.281,9.556 9.554,9.556 z"
   id="path5"
   inkscape:connector-curvature="0" />
	<path
   d="m 14.417,13.639 c 3.776,0 6.831,-3.047 6.831,-6.814 C 21.245,3.052 18.194,0 14.417,0 c -3.759,0 -6.82,3.052 -6.82,6.825 0,3.767 3.061,6.814 6.82,6.814 z"
   id="path7"
   inkscape:connector-curvature="0" />
	<circle
   cx="69.723"
   cy="6.8179998"
   r="6.8179998"
   id="circle9"
   sodipodi:cx="69.723"
   sodipodi:cy="6.8179998"
   sodipodi:rx="6.8179998"
   sodipodi:ry="6.8179998"
   d="m 76.540999,6.8179998 c 0,3.7654772 -3.052522,6.8180002 -6.817999,6.8180002 -3.765478,0 -6.818,-3.052523 -6.818,-6.8180002 C 62.905,3.0525225 65.957522,0 69.723,0 c 3.765477,0 6.817999,3.0525225 6.817999,6.8179998 z" />
	<polygon
   points="14.424,31.469 12.351,29.156 13.542,16.341 11.388,14.014 9.935,15.471 2.828,17.046 0.035,30.017 0,30.017 5.192,41.042 22.388,41.042 21.911,43.246 21.859,43.25 29.138,58.695 55.013,58.695 62.292,43.25 61.816,41.042 78.962,41.042 84.154,30.017 81.354,17.046 74.254,15.471 72.805,14.014 70.651,16.341 71.846,29.113 69.734,31.469 67.656,29.156 68.848,16.341 66.697,14.014 65.237,15.471 58.134,17.046 56.501,24.642 48.421,22.856 46.372,20.819 43.365,24.087 45.039,41.979 42.07,45.28 39.167,42.04 40.843,24.087 37.821,20.819 35.785,22.856 27.689,24.647 26.048,17.046 18.952,15.471 17.492,14.014 15.345,16.341 16.54,29.113 "
   id="polygon11" />
</g>
</svg>