<?xml version="1.0" encoding="UTF-8" standalone="no"?>
<!-- Generator: Adobe Illustrator 16.0.0, SVG Export Plug-In . SVG Version: 6.00 Build 0)  -->

<svg
   xmlns:dc="http://purl.org/dc/elements/1.1/"
   xmlns:cc="http://creativecommons.org/ns#"
   xmlns:rdf="http://www.w3.org/1999/02/22-rdf-syntax-ns#"
   xmlns:svg="http://www.w3.org/2000/svg"
   xmlns="http://www.w3.org/2000/svg"
   xmlns:sodipodi="http://sodipodi.sourceforge.net/DTD/sodipodi-0.dtd"
   xmlns:inkscape="http://www.inkscape.org/namespaces/inkscape"
   version="1.1"
   id="Capa_1"
   x="0px"
   y="0px"
   width="2"
   height="2.000001"
   viewBox="0 0 2 2.0000009"
   xml:space="preserve"
   inkscape:version="0.48.5 r10040"
   sodipodi:docname="home.svg"><metadata
   id="metadata43"><rdf:RDF><cc:Work
       rdf:about=""><dc:format>image/svg+xml</dc:format><dc:type
         rdf:resource="http://purl.org/dc/dcmitype/StillImage" /></cc:Work></rdf:RDF></metadata><defs
   id="defs41" /><sodipodi:namedview
   pagecolor="#ffffff"
   bordercolor="#666666"
   borderopacity="1"
   objecttolerance="10"
   gridtolerance="10"
   guidetolerance="10"
   inkscape:pageopacity="0"
   inkscape:pageshadow="2"
   inkscape:window-width="1920"
   inkscape:window-height="1017"
   id="namedview39"
   showgrid="false"
   fit-margin-top="0"
   fit-margin-left="0"
   fit-margin-right="0"
   fit-margin-bottom="0"
   inkscape:zoom="9.8579781"
   inkscape:cx="13.5105"
   inkscape:cy="11.970001"
   inkscape:window-x="-4"
   inkscape:window-y="-4"
   inkscape:window-maximized="1"
   inkscape:current-layer="Capa_1" />
<path
   style="fill:#000000"
   d="m 0.27194671,1.9495407 c 0,0 -0.001776,0.05046 0.0418949,0.05046 0.0543301,0 0.50414508,-6.68e-4 0.50414508,-6.68e-4 l 7.4019e-4,-0.466249 c 0,0 -0.007106,-0.07686 0.0589933,-0.07686 H 1.0868986 c 0.078164,0 0.073353,0.07686 0.073353,0.07686 l -8.883e-4,0.464745 c 0,0 0.4264989,0 0.4934863,0 0.055441,0 0.052924,-0.06282 0.052924,-0.06282 v -0.85957 L 1.0102887,0.37719269 0.27194671,1.0754387 v 0.874102 z"
   id="path3"
   inkscape:connector-curvature="0" />
<path
   style="fill:#000000"
   d="m 0,1.0104427 c 0,0 0.0626943,0.130409 0.19940785,0 L 1.0164323,0.23032569 1.7824574,1.0055967 c 0.1582532,0.128822 0.2175426,0 0.2175426,0 L 1.0164323,-3.0758564e-7 0,1.0104427 z"
   id="path5"
   inkscape:connector-curvature="0" />
<polygon
   style="fill:#000000"
   points="21.168,2.735 21.179,5.963 23.83,8.212 23.83,2.735 "
   id="polygon7"
   transform="matrix(0.07401925,0,0,0.08354219,0,-3.0758564e-7)" />
<g
   id="g9"
   transform="translate(0,-21.94)">
</g>
<g
   id="g11"
   transform="translate(0,-21.94)">
</g>
<g
   id="g13"
   transform="translate(0,-21.94)">
</g>
<g
   id="g15"
   transform="translate(0,-21.94)">
</g>
<g
   id="g17"
   transform="translate(0,-21.94)">
</g>
<g
   id="g19"
   transform="translate(0,-21.94)">
</g>
<g
   id="g21"
   transform="translate(0,-21.94)">
</g>
<g
   id="g23"
   transform="translate(0,-21.94)">
</g>
<g
   id="g25"
   transform="translate(0,-21.94)">
</g>
<g
   id="g27"
   transform="translate(0,-21.94)">
</g>
<g
   id="g29"
   transform="translate(0,-21.94)">
</g>
<g
   id="g31"
   transform="translate(0,-21.94)">
</g>
<g
   id="g33"
   transform="translate(0,-21.94)">
</g>
<g
   id="g35"
   transform="translate(0,-21.94)">
</g>
<g
   id="g37"
   transform="translate(0,-21.94)">
</g>
</svg>