<?xml version="1.0" encoding="UTF-8" standalone="no"?>
<!-- Generator: Adobe Illustrator 16.0.4, SVG Export Plug-In . SVG Version: 6.00 Build 0)  -->

<svg
   xmlns:dc="http://purl.org/dc/elements/1.1/"
   xmlns:cc="http://creativecommons.org/ns#"
   xmlns:rdf="http://www.w3.org/1999/02/22-rdf-syntax-ns#"
   xmlns:svg="http://www.w3.org/2000/svg"
   xmlns="http://www.w3.org/2000/svg"
   xmlns:sodipodi="http://sodipodi.sourceforge.net/DTD/sodipodi-0.dtd"
   xmlns:inkscape="http://www.inkscape.org/namespaces/inkscape"
   version="1.1"
   id="Capa_1"
   x="0px"
   y="0px"
   width="33"
   height="23"
   viewBox="0 0 33 23.000001"
   xml:space="preserve"
   inkscape:version="0.48.5 r10040"
   sodipodi:docname="mail.svg"><metadata
   id="metadata39"><rdf:RDF><cc:Work
       rdf:about=""><dc:format>image/svg+xml</dc:format><dc:type
         rdf:resource="http://purl.org/dc/dcmitype/StillImage" /></cc:Work></rdf:RDF></metadata><defs
   id="defs37" /><sodipodi:namedview
   pagecolor="#ffffff"
   bordercolor="#666666"
   borderopacity="1"
   objecttolerance="10"
   gridtolerance="10"
   guidetolerance="10"
   inkscape:pageopacity="0"
   inkscape:pageshadow="2"
   inkscape:window-width="640"
   inkscape:window-height="480"
   id="namedview35"
   showgrid="false"
   inkscape:zoom="16.269131"
   inkscape:cx="7.5"
   inkscape:cy="7.2529998"
   inkscape:window-x="0"
   inkscape:window-y="0"
   inkscape:window-maximized="0"
   inkscape:current-layer="Capa_1" />
<path
   style="fill:#010002"
   d="M 7.501,8.4940007 0,14.094001 v 8.906 h 15 v -8.906 L 7.501,8.4940007 z M 5.426,12.490001 c 0.22,-0.402 0.523,-0.705 0.908,-0.906 0.384,-0.203 0.822,-0.305 1.317,-0.305 0.418,0 0.791,0.082 1.117,0.244 0.326,0.164 0.574,0.395 0.747,0.695 0.171,0.301 0.258,0.629 0.258,0.984 0,0.424 -0.131,0.807 -0.392,1.15 -0.328,0.432 -0.747,0.648 -1.26,0.648 -0.138,0 -0.241,-0.023 -0.312,-0.072 -0.069,-0.049 -0.117,-0.119 -0.14,-0.213 -0.193,0.191 -0.421,0.287 -0.677,0.287 -0.276,0 -0.505,-0.096 -0.687,-0.285 -0.182,-0.191 -0.273,-0.445 -0.273,-0.76 0,-0.393 0.109,-0.748 0.329,-1.07 0.267,-0.393 0.607,-0.59 1.023,-0.59 0.296,0 0.515,0.113 0.655,0.34 l 0.063,-0.277 h 0.659 l -0.376,1.788 c -0.024,0.114 -0.035,0.186 -0.035,0.219 0,0.043 0.009,0.072 0.028,0.094 0.018,0.021 0.042,0.031 0.068,0.031 0.081,0 0.184,-0.047 0.31,-0.145 0.17,-0.125 0.307,-0.297 0.411,-0.508 0.105,-0.213 0.158,-0.434 0.158,-0.662 0,-0.408 -0.147,-0.75 -0.443,-1.027 -0.297,-0.273 -0.711,-0.412 -1.241,-0.412 -0.451,0 -0.833,0.092 -1.146,0.277 -0.313,0.182 -0.549,0.442 -0.71,0.776 -0.158,0.332 -0.237,0.68 -0.237,1.041 0,0.35 0.09,0.67 0.266,0.957 0.178,0.289 0.426,0.498 0.746,0.631 0.32,0.131 0.687,0.197 1.099,0.197 0.396,0 0.738,-0.055 1.025,-0.166 0.286,-0.111 0.516,-0.275 0.691,-0.498 h 0.53 c -0.166,0.338 -0.421,0.602 -0.764,0.795 -0.395,0.219 -0.876,0.328 -1.442,0.328 -0.55,0 -1.023,-0.092 -1.422,-0.277 -0.4,-0.186 -0.696,-0.459 -0.892,-0.82 -0.194,-0.362 -0.29,-0.756 -0.29,-1.182 0,-0.467 0.109,-0.903 0.331,-1.307 z m -4.897,1.781 5.534,3.711 -5.534,4.283 v -7.994 z m 0.42,8.28 6.552,-5.07 6.55,5.07 H 0.949 z m 13.522,-0.286 -5.534,-4.283 5.534,-3.711 v 7.994 z m -6.7,-9.367 c 0.088,0.1 0.132,0.244 0.132,0.432 0,0.168 -0.033,0.35 -0.097,0.543 -0.063,0.195 -0.14,0.344 -0.228,0.445 -0.06,0.071 -0.124,0.123 -0.187,0.156 -0.083,0.047 -0.171,0.07 -0.266,0.07 -0.127,10e-4 -0.232,-0.05 -0.319,-0.15 -0.085,-0.1 -0.127,-0.254 -0.127,-0.465 0,-0.158 0.03,-0.34 0.092,-0.545 0.062,-0.205 0.153,-0.361 0.274,-0.473 0.122,-0.111 0.254,-0.166 0.396,-0.166 0.133,10e-4 0.244,0.052 0.33,0.153 z"
   id="path3"
   inkscape:connector-curvature="0" />
<g
   id="g5"
   transform="translate(0,8.4940007)">
</g>
<g
   id="g7"
   transform="translate(0,8.4940007)">
</g>
<g
   id="g9"
   transform="translate(0,8.4940007)">
</g>
<g
   id="g11"
   transform="translate(0,8.4940007)">
</g>
<g
   id="g13"
   transform="translate(0,8.4940007)">
</g>
<g
   id="g15"
   transform="translate(0,8.4940007)">
</g>
<g
   id="g17"
   transform="translate(0,8.4940007)">
</g>
<g
   id="g19"
   transform="translate(0,8.4940007)">
</g>
<g
   id="g21"
   transform="translate(0,8.4940007)">
</g>
<g
   id="g23"
   transform="translate(0,8.4940007)">
</g>
<g
   id="g25"
   transform="translate(0,8.4940007)">
</g>
<g
   id="g27"
   transform="translate(0,8.4940007)">
</g>
<g
   id="g29"
   transform="translate(0,8.4940007)">
</g>
<g
   id="g31"
   transform="translate(0,8.4940007)">
</g>
<g
   id="g33"
   transform="translate(0,8.4940007)">
</g>
</svg>