<?xml version="1.0" encoding="UTF-8" standalone="no"?>
<!-- Generator: Adobe Illustrator 17.1.0, SVG Export Plug-In . SVG Version: 6.00 Build 0)  -->

<svg
   xmlns:dc="http://purl.org/dc/elements/1.1/"
   xmlns:cc="http://creativecommons.org/ns#"
   xmlns:rdf="http://www.w3.org/1999/02/22-rdf-syntax-ns#"
   xmlns:svg="http://www.w3.org/2000/svg"
   xmlns="http://www.w3.org/2000/svg"
   xmlns:sodipodi="http://sodipodi.sourceforge.net/DTD/sodipodi-0.dtd"
   xmlns:inkscape="http://www.inkscape.org/namespaces/inkscape"
   version="1.1"
   id="Layer_1"
   x="0px"
   y="0px"
   viewBox="0 0 33 23"
   xml:space="preserve"
   inkscape:version="0.48.5 r10040"
   width="100%"
   height="100%"
   sodipodi:docname="modern11.svg"><metadata
   id="metadata27"><rdf:RDF><cc:Work
       rdf:about=""><dc:format>image/svg+xml</dc:format><dc:type
         rdf:resource="http://purl.org/dc/dcmitype/StillImage" /></cc:Work></rdf:RDF></metadata><defs
   id="defs25" /><sodipodi:namedview
   pagecolor="#ffffff"
   bordercolor="#666666"
   borderopacity="1"
   objecttolerance="10"
   gridtolerance="10"
   guidetolerance="10"
   inkscape:pageopacity="0"
   inkscape:pageshadow="2"
   inkscape:window-width="640"
   inkscape:window-height="480"
   id="namedview23"
   showgrid="false"
   inkscape:zoom="14.75"
   inkscape:cx="16.962818"
   inkscape:cy="11.663518"
   inkscape:window-x="0"
   inkscape:window-y="0"
   inkscape:window-maximized="0"
   inkscape:current-layer="Layer_1" />
<g
   id="g3"
   transform="matrix(0.04094012,0,0,0.02957909,21.490964,19.166097)">
	<rect
   x="33"
   y="35"
   width="6"
   height="12"
   id="rect5" />
	<rect
   x="33"
   y="29"
   width="6"
   height="1"
   id="rect7" />
	<polygon
   points="33,23 33,24 42,24 42,26 33,26 33,27 42,27 42,28 44,28 44,19 42,19 42,17 33,17 33,19 33,21 42,21 42,23 "
   id="polygon9" />
	<rect
   x="33"
   y="32"
   width="6"
   height="1"
   id="rect11" />
	<path
   d="m 6.72,57.068 c 0.274,-2.249 2.406,-3.458 4.255,-3.458 1.949,0 3.611,1.183 4.298,2.886 0.613,-1.426 0.968,-4.932 4.727,-5.774 v 6.655 c 1.422,0.722 2.495,2.017 2.87,3.622 0.075,0.322 0.123,0.657 0.14,1 H 26 v -1 -7.455 -0.902 -0.89 V 51 H 25.287 24.438 23.61 22 V 50.561 50.156 49.645 49 h 4 v -1 h -4 v -2 h 8 v 1 h 2 V 35 33 32 30 29 27 26 24 23 21 14 H 30 V 12 H 28 V 10 H 27 V 4 h -2 v 6 h -1 v 2 h -2 v 2 h -2 v 35.791 c -3.163,0.605 -4.382,2.801 -5.02,4.533 -1.036,-1.051 -2.463,-1.67 -4.005,-1.67 -2.547,0 -5.294,1.892 -5.307,4.95 0.167,-0.111 0.341,-0.212 0.522,-0.303 0.171,-0.087 0.349,-0.164 0.53,-0.233 z M 22,16 h 8 v 2 h -8 v -2 z m 0,3 h 8 v 2 h -8 v -2 z m 0,3 h 8 v 2 h -8 v -2 z m 0,3 h 8 v 2 h -8 v -2 z m 0,3 h 8 v 2 h -8 v -2 z m 0,3 h 8 v 2 h -8 v -2 z m 0,3 h 8 v 2 h -8 v -2 z m 0,3 h 8 v 2 h -8 v -2 z m 0,3 h 8 v 2 h -8 v -2 z m 0,3 h 8 v 2 h -8 v -2 z"
   id="path13"
   inkscape:connector-curvature="0" />
	<path
   d="m 42,29 h -2 v 1 2 1 2 12 h 4 1 2 1 1 v 5 10 h 3 V 52 29 h -8 -2 z m 0,2 h 2 v 2 h -2 v -1 -1 z m 0,6 h 2 v 2 h -2 v -2 z m 5,2 h -2 v -2 h 2 v 2 z m -5,1 h 2 v 2 h -2 v -2 z m 3,0 h 2 v 2 h -2 v -2 z m 3,0 h 2 v 2 h -2 v -2 z m 0,-1 v -2 h 2 v 2 h -2 z m 0,-3 v -2 h 2 v 2 h -2 z m -1,0 h -2 v -2 h 2 v 2 z m -5,-2 h 2 v 2 h -2 v -1 -1 z m 0,11 v -2 h 2 v 2 h -2 z m 3,0 v -2 h 2 v 2 h -2 z m 3,0 v -2 h 2 v 2 h -2 z m 2,-12 h -2 v -2 h 2 v 2 z m -3,0 h -2 v -2 h 2 v 2 z"
   id="path15"
   inkscape:connector-curvature="0" />
	<path
   d="M 22.017,62 C 22,61.67 21.915,61.334 21.802,61 21.492,60.083 20.856,59.195 19.999,58.573 19.276,58.048 18.407,57.71 17.467,57.71 c -1.882,0 -3.496,1.227 -4.196,2.853 -0.687,-1.703 -2.349,-2.908 -4.298,-2.908 -0.768,0 -1.586,0.162 -2.303,0.504 -0.173,0.083 -0.339,0.178 -0.498,0.282 -0.178,0.117 -0.339,0.254 -0.493,0.4 C 5.074,59.413 4.665,60.198 4.665,61.255 4.666,61.54 4.7,62 4.75,62 H 5.916 6.333 6.75 20 22.017 z"
   id="path17"
   inkscape:connector-curvature="0" />
	<polygon
   points="27,55.835 27,61 27,62 28.042,62 28.563,62 29,62 29,60.416 29,53 29,52 32,52 33,52 39,52 40,52 44,52 46,52 46,62 48,62 48,52 48,48 44,48 40,48 39,48 33,48 32,48 30,48 27,48 27,49 27,51 27,53.232 27,54.465 "
   id="polygon19" />
	<polygon
   points="32,57 33,57 37,57 37,62 38,62 38,57 40,57 43,57 43,62 44,62 45,62 45,53 44,53 40,53 33,53 32,53 30,53 30,62 32,62 "
   id="polygon21" />
</g>
</svg>