<?xml version="1.0" encoding="UTF-8" standalone="no"?>
<!-- Generator: Adobe Illustrator 16.0.4, SVG Export Plug-In . SVG Version: 6.00 Build 0)  -->

<svg
   xmlns:dc="http://purl.org/dc/elements/1.1/"
   xmlns:cc="http://creativecommons.org/ns#"
   xmlns:rdf="http://www.w3.org/1999/02/22-rdf-syntax-ns#"
   xmlns:svg="http://www.w3.org/2000/svg"
   xmlns="http://www.w3.org/2000/svg"
   xmlns:sodipodi="http://sodipodi.sourceforge.net/DTD/sodipodi-0.dtd"
   xmlns:inkscape="http://www.inkscape.org/namespaces/inkscape"
   version="1.1"
   id="Capa_1"
   x="0px"
   y="0px"
   width="33"
   height="23"
   viewBox="0 0 33 23"
   enable-background="new 0 0 612 792"
   xml:space="preserve"
   inkscape:version="0.48.5 r10040"
   sodipodi:docname="phone16.svg"><metadata
   id="metadata9"><rdf:RDF><cc:Work
       rdf:about=""><dc:format>image/svg+xml</dc:format><dc:type
         rdf:resource="http://purl.org/dc/dcmitype/StillImage" /></cc:Work></rdf:RDF></metadata><defs
   id="defs7" /><sodipodi:namedview
   pagecolor="#ffffff"
   bordercolor="#666666"
   borderopacity="1"
   objecttolerance="10"
   gridtolerance="10"
   guidetolerance="10"
   inkscape:pageopacity="0"
   inkscape:pageshadow="2"
   inkscape:window-width="640"
   inkscape:window-height="480"
   id="namedview5"
   showgrid="false"
   inkscape:zoom="0.2979798"
   inkscape:cx="306"
   inkscape:cy="396"
   inkscape:window-x="0"
   inkscape:window-y="0"
   inkscape:window-maximized="0"
   inkscape:current-layer="Capa_1" />
<path
   d="m 597.312,-216.328 c 1.224,9.384 -1.634,17.544 -8.568,24.48 l -81.396,80.782 c -3.672,4.08 -8.466,7.55 -14.382,10.404 -5.916,2.856 -11.729,4.692 -17.44,5.508 -0.408,0 -1.634,0.104 -3.674,0.308 -2.038,0.204 -4.69,0.306 -7.954,0.306 -7.753,0 -20.3,-1.326 -37.64,-3.978 -17.34,-2.652 -38.556,-9.182 -63.646,-19.584 -25.094,-10.404 -53.552,-26.012 -85.375,-46.818 -31.823,-20.806 -65.688,-49.368 -101.592,-85.68 -28.56,-28.152 -52.224,-55.08 -70.992,-80.784 -18.768,-25.704 -33.864,-49.47 -45.288,-71.298 -11.425,-21.828 -19.993,-41.616 -25.705,-59.364 -5.712,-17.748 -9.588,-33.048 -11.628,-45.9 -2.04,-12.852 -2.856,-22.95 -2.448,-30.294 0.408,-7.344 0.612,-11.424 0.612,-12.24 0.816,-5.712 2.652,-11.526 5.508,-17.442 2.856,-5.916 6.324,-10.71 10.404,-14.382 l 81.396,-81.396 c 5.712,-5.712 12.24,-8.568 19.584,-8.568 5.304,0 9.996,1.53 14.076,4.59 4.08,3.06 7.548,6.834 10.404,11.322 l 65.484,124.236 c 3.672,6.528 4.692,13.668 3.06,21.42 -1.632,7.752 -5.1,14.28 -10.404,19.584 l -29.988,29.988 c -0.816,0.816 -1.53,2.142 -2.142,3.978 -0.612,1.836 -0.918,3.366 -0.918,4.59 1.632,8.568 5.304,18.36 11.016,29.376 4.896,9.792 12.444,21.726 22.644,35.802 10.2,14.076 24.684,30.294 43.452,48.653 18.36,18.769 34.68,33.354 48.96,43.759 14.278,10.402 26.214,18.054 35.802,22.95 9.588,4.896 16.932,7.854 22.032,8.872 l 7.648,1.53 c 0.816,0 2.144,-0.306 3.979,-0.918 1.835,-0.612 3.162,-1.326 3.978,-2.142 l 34.884,-35.496 c 7.346,-6.528 15.912,-9.792 25.704,-9.792 6.938,0 12.444,1.224 16.524,3.672 h 0.612 l 118.114,69.768 c 8.571,5.306 13.671,12.038 15.303,20.198 z"
   id="path3"
   inkscape:connector-curvature="0" />
</svg>