<?xml version="1.0" encoding="UTF-8" standalone="no"?>
<!-- Generator: Adobe Illustrator 16.0.4, SVG Export Plug-In . SVG Version: 6.00 Build 0)  -->

<svg
   xmlns:dc="http://purl.org/dc/elements/1.1/"
   xmlns:cc="http://creativecommons.org/ns#"
   xmlns:rdf="http://www.w3.org/1999/02/22-rdf-syntax-ns#"
   xmlns:svg="http://www.w3.org/2000/svg"
   xmlns="http://www.w3.org/2000/svg"
   xmlns:sodipodi="http://sodipodi.sourceforge.net/DTD/sodipodi-0.dtd"
   xmlns:inkscape="http://www.inkscape.org/namespaces/inkscape"
   version="1.1"
   id="Capa_1"
   x="0px"
   y="0px"
   width="3"
   height="2"
   viewBox="0 0 2.9999999 2"
   enable-background="new 0 0 84.15 58.695"
   xml:space="preserve"
   inkscape:version="0.48.5 r10040"
   sodipodi:docname="services.svg"><metadata
   id="metadata17"><rdf:RDF><cc:Work
       rdf:about=""><dc:format>image/svg+xml</dc:format><dc:type
         rdf:resource="http://purl.org/dc/dcmitype/StillImage" /><dc:title></dc:title></cc:Work></rdf:RDF></metadata><defs
   id="defs15" /><sodipodi:namedview
   pagecolor="#ffffff"
   bordercolor="#666666"
   borderopacity="1"
   objecttolerance="10"
   gridtolerance="10"
   guidetolerance="10"
   inkscape:pageopacity="0"
   inkscape:pageshadow="2"
   inkscape:window-width="1920"
   inkscape:window-height="1017"
   id="namedview13"
   showgrid="false"
   inkscape:zoom="21.108166"
   inkscape:cx="3.083537"
   inkscape:cy="19.894388"
   inkscape:window-x="-4"
   inkscape:window-y="-4"
   inkscape:window-maximized="1"
   inkscape:current-layer="Capa_1"
   fit-margin-top="0"
   fit-margin-left="0"
   fit-margin-right="0"
   fit-margin-bottom="0" />

<g
   id="g3"
   transform="matrix(0.12873879,0,0,0.11946004,-7.0261484e-7,0)"><path
     d="M 13.832,7.655 15.082,6.408 13.807,5.134 12.56,6.384 C 12.037,6.028 11.44,5.781 10.798,5.656 V 3.889 H 9 V 5.657 C 8.356,5.781 7.762,6.027 7.241,6.384 L 5.991,5.134 4.719,6.408 5.965,7.655 C 5.614,8.178 5.367,8.771 5.242,9.417 h -1.77 v 1.797 h 1.77 c 0.125,0.642 0.371,1.236 0.723,1.759 l -1.246,1.25 1.271,1.272 1.25,-1.248 c 0.521,0.354 1.116,0.601 1.76,0.726 v 1.769 h 1.799 v -1.769 c 0.642,-0.123 1.237,-0.369 1.762,-0.724 l 1.247,1.246 1.275,-1.272 -1.25,-1.25 c 0.354,-0.521 0.602,-1.117 0.722,-1.759 h 1.772 V 9.417 H 14.554 C 14.433,8.771 14.187,8.178 13.832,7.655 z M 9.898,12.28 c -1.083,0 -1.962,-0.883 -1.962,-1.968 0,-1.082 0.879,-1.963 1.962,-1.963 1.086,0 1.966,0.881 1.966,1.963 10e-4,1.085 -0.879,1.968 -1.966,1.968 z"
     id="path5"
     inkscape:connector-curvature="0" /><path
     d="M 15.58,1.604 C 14.003,0.595 12.138,0 10.129,0 4.535,0 0,4.534 0,10.128 c 0,2.338 0.8,4.481 2.128,6.197 L 3.4,15.054 c -1.012,-1.381 -1.628,-3.07 -1.628,-4.918 0,-4.615 3.741,-8.354 8.356,-8.354 1.535,0 2.951,0.443 4.188,1.173 l -0.976,1.04 3.967,0.36 -0.426,-4.142 -1.301,1.391 z"
     id="path7"
     inkscape:connector-curvature="0" /><polygon
     points="20.818,12.828 23.303,10.341 20.818,7.857 20.818,9.248 17.547,9.248 17.547,11.434 20.818,11.434 "
     id="polygon9" /></g></svg>